<?xml version="1.0" encoding="utf-8"?>
<!-- Generator: Adobe Illustrator 23.0.3, SVG Export Plug-In . SVG Version: 6.00 Build 0)  -->
<svg version="1.1" id="Layer_1" xmlns="http://www.w3.org/2000/svg" xmlns:xlink="http://www.w3.org/1999/xlink" x="0px" y="0px"
	 viewBox="0 0 220 390" style="enable-background:new 0 0 220 390;" xml:space="preserve">
<style type="text/css">
	.st0{fill:#6ABD45;}
	.st1{opacity:0.6;}
	.st2{fill:#28441E;}
	.st3{opacity:0.9;}
	.st4{fill:#48C2C5;}
	.st5{opacity:0.75;enable-background:new    ;}
	.st6{fill:none;stroke:#3E3F3E;stroke-width:3;stroke-miterlimit:10;}
	.st7{fill:none;stroke:#545454;stroke-width:2;stroke-miterlimit:10;}
	.st8{fill:none;stroke:#565656;stroke-miterlimit:10;}
	.st9{fill:none;stroke:#595959;stroke-width:0.5;stroke-miterlimit:10;}
	.st10{opacity:0.5;fill:none;stroke:#313A31;stroke-width:3;stroke-miterlimit:10;}
	.st11{opacity:0.5;fill:none;stroke:#4D5B4D;stroke-width:2;stroke-miterlimit:10;}
	.st12{opacity:0.5;fill:none;stroke:#576D57;stroke-miterlimit:10;}
	.st13{opacity:0.5;fill:none;stroke:#708470;stroke-width:0.5;stroke-miterlimit:10;}
</style>
<g>
	<g>
		<g>
			<path class="st0" d="M521.5-639.5c3.5-12.6,5.2-25.8,5-39c-0.1-4-0.3-8.2-2.2-11.7c-1.9-3.4-5.1-5.5-8.2-7.3
				c-10.7-5.9-22.7-8.8-34.6-8.4c-3.4,0.1-6.8,0.5-9.7,2.4c-4.9,3.2-7.1,9.9-8.2,16.1c-7,39.4,12,78.2,16.8,118
				c3.9,31.7-1.6,64.7-15.4,92.8c-6.1,12.6-13.9,24.3-18.2,37.8c-4.5,14.3-9.7,89.6,13.3,85.6c29.9-5.2,24.2-65.5,24.7-88.6
				c0.7-34.2,5.2-68.2,9.8-102c2.3-17.3,4.7-34.8,10.2-51.3c4.3-12.9,10.4-25,14.7-37.9C520.3-635.1,521-637.3,521.5-639.5z"/>
		</g>
		<g>
			<path class="st0" d="M462.6-807.5c3.5-12.6,5.2-25.8,5-39c-0.1-4-0.3-8.2-2.2-11.7c-1.9-3.4-5.1-5.5-8.2-7.3
				c-10.7-5.9-22.7-8.8-34.6-8.4c-3.4,0.1-6.8,0.5-9.7,2.4c-4.9,3.2-7.1,9.9-8.2,16.1c-7,39.4,12,78.2,16.8,118
				c3.9,31.7-1.6,64.7-15.4,92.8c-6.1,12.6-13.9,24.3-18.2,37.8c-4.5,14.3-9.7,89.6,13.3,85.6c29.9-5.2,24.2-65.5,24.7-88.6
				c0.7-34.2,5.2-68.2,9.8-102c2.3-17.3,4.7-34.8,10.2-51.3c4.3-12.9,10.4-25,14.7-37.9C461.4-803.1,462.1-805.3,462.6-807.5z"/>
		</g>
		<g>
			<path class="st0" d="M409.8-950c3.5-12.6,5.2-25.8,5-39c-0.1-4-0.3-8.2-2.2-11.7c-1.9-3.4-5.1-5.5-8.2-7.3
				c-10.7-5.9-22.7-8.8-34.6-8.4c-3.4,0.1-6.8,0.5-9.7,2.4c-4.9,3.2-7.1,9.9-8.2,16.1c-7,39.4,12,78.2,16.8,118
				c3.9,31.7-1.6,64.7-15.4,92.8c-6.1,12.6-13.9,24.3-18.2,37.8c-4.5,14.3-9.7,89.6,13.3,85.6c29.9-5.2,24.2-65.5,24.7-88.6
				c0.7-34.2,5.2-68.2,9.8-102c2.3-17.3,4.7-34.8,10.2-51.3c4.3-12.9,10.4-25,14.7-37.9C408.6-945.6,409.2-947.8,409.8-950z"/>
		</g>
		<g class="st1">
			<path class="st2" d="M492.6-625.5c3.5-12.6,5.2-25.8,5-39c-0.1-4-0.3-8.2-2.2-11.7c-1.9-3.4-5.1-5.5-8.2-7.3
				c-10.7-5.9-22.7-8.8-34.6-8.4c-3.4,0.1-6.8,0.5-9.7,2.4c-4.9,3.2-7.1,9.9-8.2,16.1c-7,39.4,12,78.2,16.8,118
				c3.9,31.7-1.6,64.7-15.4,92.8c-6.1,12.6-13.9,24.3-18.2,37.8c-4.5,14.3-9.7,89.6,13.3,85.6c29.9-5.2,24.2-65.5,24.7-88.6
				c0.7-34.2,5.2-68.2,9.8-102c2.3-17.3,4.7-34.8,10.2-51.3c4.3-12.9,10.4-25,14.7-37.9C491.3-621.1,492-623.3,492.6-625.5z"/>
		</g>
		<g class="st1">
			<path class="st2" d="M433.7-793.6c3.5-12.6,5.2-25.8,5-39c-0.1-4-0.3-8.2-2.2-11.7c-1.9-3.4-5.1-5.5-8.2-7.3
				c-10.7-5.9-22.7-8.8-34.6-8.4c-3.4,0.1-6.8,0.5-9.7,2.4c-4.9,3.2-7.1,9.9-8.2,16.1c-7,39.4,12,78.2,16.8,118
				c3.9,31.7-1.6,64.7-15.4,92.8c-6.1,12.6-13.9,24.3-18.2,37.8c-4.5,14.3-9.7,89.6,13.3,85.6c29.9-5.2,24.2-65.5,24.7-88.6
				c0.7-34.2,5.2-68.2,9.8-102c2.3-17.3,4.7-34.8,10.2-51.3c4.3-12.9,10.4-25,14.7-37.9C432.4-789.1,433.1-791.3,433.7-793.6z"/>
		</g>
		<g class="st1">
			<path class="st2" d="M380.9-936.1c3.5-12.6,5.2-25.8,5-39c-0.1-4-0.3-8.2-2.2-11.7c-1.9-3.4-5.1-5.5-8.2-7.3
				c-10.7-5.9-22.7-8.8-34.6-8.4c-3.4,0.1-6.8,0.5-9.7,2.4c-4.9,3.2-7.1,9.9-8.2,16.1c-7,39.4,12,78.2,16.8,118
				c3.9,31.7-1.6,64.7-15.4,92.8c-6.1,12.6-13.9,24.3-18.2,37.8c-4.5,14.3-9.7,89.6,13.3,85.6c29.9-5.2,24.2-65.5,24.7-88.6
				c0.7-34.2,5.2-68.2,9.8-102c2.3-17.3,4.7-34.8,10.2-51.3c4.3-12.9,10.4-25,14.7-37.9C379.6-931.7,380.3-933.9,380.9-936.1z"/>
		</g>
		<g class="st3">
			<path class="st4" d="M492.6-556.3c3.5-12.6,5.2-25.8,5-39c-0.1-4-0.3-8.2-2.2-11.7c-1.9-3.4-5.1-5.5-8.2-7.3
				c-10.7-5.9-22.7-8.8-34.6-8.4c-3.4,0.1-6.8,0.5-9.7,2.4c-4.9,3.2-7.1,9.9-8.2,16.1c-7,39.4,12,78.2,16.8,118
				c3.9,31.7-1.6,64.7-15.4,92.8c-6.1,12.6-13.9,24.3-18.2,37.8c-4.5,14.3-9.7,89.6,13.3,85.6c29.9-5.2,24.2-65.5,24.7-88.6
				c0.7-34.2,5.2-68.2,9.8-102c2.3-17.4,4.7-34.8,10.2-51.3c4.3-12.9,10.4-25,14.7-37.9C491.3-551.9,492-554.1,492.6-556.3z"/>
		</g>
		<g class="st3">
			<path class="st4" d="M433.7-724.4c3.5-12.6,5.2-25.8,5-39c-0.1-4-0.3-8.2-2.2-11.7c-1.9-3.4-5.1-5.5-8.2-7.3
				c-10.7-5.9-22.7-8.8-34.6-8.4c-3.4,0.1-6.8,0.5-9.7,2.4c-4.9,3.2-7.1,9.9-8.2,16.1c-7,39.4,12,78.2,16.8,118
				c3.9,31.7-1.6,64.7-15.4,92.8c-6.1,12.6-13.9,24.3-18.2,37.8c-4.5,14.3-9.7,89.6,13.3,85.6c29.9-5.2,24.2-65.5,24.7-88.6
				c0.7-34.2,5.2-68.2,9.8-102c2.3-17.3,4.7-34.8,10.2-51.3c4.3-12.9,10.4-25,14.7-37.9C432.4-719.9,433.1-722.1,433.7-724.4z"/>
		</g>
		<g class="st3">
			<path class="st4" d="M380.9-866.8c3.5-12.6,5.2-25.8,5-39c-0.1-4-0.3-8.2-2.2-11.7c-1.9-3.4-5.1-5.5-8.2-7.3
				c-10.7-5.9-22.7-8.8-34.6-8.4c-3.4,0.1-6.8,0.5-9.7,2.4c-4.9,3.2-7.1,9.9-8.2,16.1c-7,39.4,12,78.2,16.8,118
				c3.9,31.7-1.6,64.7-15.4,92.8c-6.1,12.6-13.9,24.3-18.2,37.8c-4.5,14.3-9.7,89.6,13.3,85.6c29.9-5.2,24.2-65.5,24.7-88.6
				c0.7-34.2,5.2-68.2,9.8-102c2.3-17.3,4.7-34.8,10.2-51.3c4.3-12.9,10.4-25,14.7-37.9C379.6-862.4,380.3-864.6,380.9-866.8z"/>
		</g>
	</g>
	<g>
		<g>
			<path class="st0" d="M400.5-237.4c3.5-12.6,5.2-25.8,5-39c-0.1-4-0.3-8.2-2.2-11.7c-1.9-3.4-5.1-5.5-8.2-7.3
				c-10.7-5.9-22.7-8.8-34.6-8.4c-3.4,0.1-6.8,0.5-9.7,2.4c-4.9,3.2-7.1,9.9-8.2,16.1c-7,39.4,12,78.2,16.8,118
				c3.9,31.7-1.6,64.7-15.4,92.8c-6.1,12.6-13.9,24.3-18.2,37.8c-4.5,14.3-9.7,89.6,13.3,85.6c29.9-5.2,24.2-65.5,24.7-88.6
				c0.7-34.2,5.2-68.2,9.8-102c2.3-17.4,4.7-34.8,10.2-51.3c4.3-12.9,10.4-24.9,14.7-37.9C399.3-232.9,399.9-235.1,400.5-237.4z"/>
		</g>
		<g>
			<path class="st0" d="M341.6-405.4c3.5-12.6,5.2-25.8,5-39c-0.1-4-0.3-8.2-2.2-11.7c-1.9-3.4-5.1-5.5-8.2-7.3
				c-10.7-5.9-22.7-8.8-34.6-8.4c-3.4,0.1-6.8,0.5-9.7,2.4c-4.9,3.2-7.1,9.9-8.2,16.1c-7,39.4,12,78.2,16.8,118
				c3.9,31.7-1.6,64.7-15.4,92.8c-6.1,12.6-13.9,24.3-18.2,37.8c-4.5,14.3-9.7,89.6,13.3,85.6c29.9-5.2,24.2-65.5,24.7-88.6
				c0.7-34.2,5.2-68.2,9.8-102c2.3-17.4,4.7-34.8,10.2-51.3c4.3-12.9,10.4-25,14.7-37.9C340.4-401,341.1-403.2,341.6-405.4z"/>
		</g>
		<g>
			<path class="st0" d="M288.9-547.9c3.5-12.6,5.2-25.8,5-39c-0.1-4-0.3-8.2-2.2-11.7c-1.9-3.4-5.1-5.5-8.2-7.3
				c-10.7-5.9-22.7-8.8-34.6-8.4c-3.4,0.1-6.8,0.5-9.7,2.4c-4.9,3.2-7.1,9.9-8.2,16.1c-7,39.4,12,78.2,16.8,118
				c3.9,31.7-1.6,64.7-15.4,92.8c-6.1,12.6-13.9,24.3-18.2,37.8c-4.5,14.3-9.7,89.6,13.3,85.6c29.9-5.2,24.2-65.5,24.7-88.6
				c0.7-34.2,5.2-68.2,9.8-102c2.3-17.4,4.7-34.8,10.2-51.3c4.3-12.9,10.4-25,14.7-37.9C287.6-543.5,288.2-545.7,288.9-547.9z"/>
		</g>
		<g class="st1">
			<path class="st2" d="M371.6-223.4c3.5-12.6,5.2-25.8,5-39c-0.1-4-0.3-8.2-2.2-11.7c-1.9-3.4-5.1-5.5-8.2-7.3
				c-10.7-5.9-22.7-8.8-34.6-8.4c-3.4,0.1-6.8,0.5-9.7,2.4c-4.9,3.2-7.1,9.9-8.2,16.1c-7,39.4,12,78.2,16.8,118
				c3.9,31.7-1.6,64.7-15.4,92.8C309-47.8,301.2-36.1,297-22.6C292.4-8.3,287.3,67,310.3,63c29.9-5.2,24.2-65.5,24.7-88.6
				c0.7-34.2,5.2-68.2,9.8-102c2.3-17.4,4.7-34.8,10.2-51.3c4.3-12.9,10.4-24.9,14.7-37.9C370.3-219,371-221.2,371.6-223.4z"/>
		</g>
		<g class="st1">
			<path class="st2" d="M312.7-391.5c3.5-12.6,5.2-25.8,5-39c-0.1-4-0.3-8.2-2.2-11.7c-1.9-3.4-5.1-5.5-8.2-7.3
				c-10.7-5.9-22.7-8.8-34.6-8.4c-3.4,0.1-6.8,0.5-9.7,2.4c-4.9,3.2-7.1,9.9-8.2,16.1c-7,39.4,12,78.2,16.8,118
				c3.9,31.7-1.6,64.7-15.4,92.8c-6.1,12.6-13.9,24.3-18.2,37.8c-4.5,14.3-9.7,89.6,13.3,85.6c29.9-5.2,24.2-65.5,24.7-88.6
				c0.7-34.2,5.2-68.2,9.8-102c2.3-17.4,4.7-34.8,10.2-51.3c4.3-12.9,10.4-25,14.7-37.9C311.4-387,312.1-389.2,312.7-391.5z"/>
		</g>
		<g class="st1">
			<path class="st2" d="M259.9-534c3.5-12.6,5.2-25.8,5-39c-0.1-4-0.3-8.2-2.2-11.7c-1.9-3.4-5.1-5.5-8.2-7.3
				c-10.7-5.9-22.7-8.8-34.6-8.4c-3.4,0.1-6.8,0.5-9.7,2.4c-4.9,3.2-7.1,9.9-8.2,16.1c-7,39.4,12,78.2,16.8,118
				c3.9,31.7-1.6,64.7-15.4,92.8c-6.1,12.6-13.9,24.3-18.2,37.8c-4.5,14.3-9.7,89.6,13.3,85.6c29.9-5.2,24.2-65.5,24.7-88.6
				c0.7-34.2,5.2-68.2,9.8-102c2.3-17.4,4.7-34.8,10.2-51.3c4.3-12.9,10.4-25,14.7-37.9C258.6-529.5,259.3-531.7,259.9-534z"/>
		</g>
		<g class="st3">
			<path class="st4" d="M371.6-154.2c3.5-12.6,5.2-25.8,5-39c-0.1-4-0.3-8.2-2.2-11.7c-1.9-3.4-5.1-5.5-8.2-7.3
				c-10.7-5.9-22.7-8.8-34.6-8.4c-3.4,0.1-6.8,0.6-9.7,2.4c-4.9,3.2-7.1,9.9-8.2,16.1c-7,39.4,12,78.2,16.8,118
				c3.9,31.7-1.6,64.7-15.4,92.8C309,21.4,301.2,33.1,297,46.6c-4.5,14.3-9.7,89.6,13.3,85.6c29.9-5.2,24.2-65.5,24.7-88.6
				c0.7-34.2,5.2-68.2,9.8-102c2.3-17.3,4.7-34.8,10.2-51.3c4.3-12.9,10.4-24.9,14.7-37.9C370.3-149.8,371-152,371.6-154.2z"/>
		</g>
		<g class="st3">
			<path class="st4" d="M312.7-322.2c3.5-12.6,5.2-25.8,5-39c-0.1-4-0.3-8.2-2.2-11.7c-1.9-3.4-5.1-5.5-8.2-7.3
				c-10.7-5.9-22.7-8.8-34.6-8.4c-3.4,0.1-6.8,0.5-9.7,2.4c-4.9,3.2-7.1,9.9-8.2,16.1c-7,39.4,12,78.2,16.8,118
				c3.9,31.7-1.6,64.7-15.4,92.8c-6.1,12.6-13.9,24.3-18.2,37.8c-4.5,14.3-9.7,89.6,13.3,85.6c29.9-5.2,24.2-65.5,24.7-88.6
				c0.7-34.2,5.2-68.2,9.8-102c2.3-17.4,4.7-34.8,10.2-51.3c4.3-12.9,10.4-25,14.7-37.9C311.4-317.8,312.1-320,312.7-322.2z"/>
		</g>
		<g class="st3">
			<path class="st4" d="M259.9-464.7c3.5-12.6,5.2-25.8,5-39c-0.1-4-0.3-8.2-2.2-11.7c-1.9-3.4-5.1-5.5-8.2-7.3
				c-10.7-5.9-22.7-8.8-34.6-8.4c-3.4,0.1-6.8,0.5-9.7,2.4c-4.9,3.2-7.1,9.9-8.2,16.1c-7,39.4,12,78.2,16.8,118
				c3.9,31.7-1.6,64.7-15.4,92.8c-6.1,12.6-13.9,24.3-18.2,37.8c-4.5,14.3-9.7,89.6,13.3,85.6c29.9-5.2,24.2-65.5,24.7-88.6
				c0.7-34.2,5.2-68.2,9.8-102c2.3-17.4,4.7-34.8,10.2-51.3c4.3-12.9,10.4-25,14.7-37.9C258.6-460.3,259.3-462.5,259.9-464.7z"/>
		</g>
	</g>
	<g>
		<g>
			<path class="st0" d="M288.5,200.8c3.5-12.6,5.2-25.8,5-39c-0.1-4-0.3-8.2-2.2-11.7c-1.9-3.4-5.1-5.5-8.2-7.3
				c-10.7-5.9-22.7-8.8-34.6-8.4c-3.4,0.1-6.8,0.6-9.7,2.4c-4.9,3.2-7.1,9.9-8.2,16.1c-7,39.4,12,78.2,16.8,118
				c3.9,31.7-1.6,64.7-15.4,92.8c-6.1,12.6-13.9,24.3-18.2,37.8c-4.5,14.3-9.7,89.6,13.3,85.6c29.9-5.2,24.2-65.5,24.7-88.6
				c0.7-34.2,5.2-68.2,9.8-102c2.3-17.4,4.7-34.8,10.2-51.3c4.3-12.9,10.4-24.9,14.7-37.9C287.2,205.2,287.9,203,288.5,200.8z"/>
		</g>
		<g>
			<path class="st0" d="M229.6,32.7c3.5-12.6,5.2-25.8,5-39c-0.1-4-0.3-8.2-2.2-11.7c-1.9-3.4-5.1-5.5-8.2-7.3
				c-10.7-5.9-22.7-8.8-34.6-8.4c-3.4,0.1-6.8,0.5-9.7,2.4c-4.9,3.2-7.1,9.9-8.2,16.1c-7,39.4,12,78.2,16.8,118
				c3.9,31.7-1.6,64.7-15.4,92.8c-6.1,12.6-13.9,24.3-18.2,37.8c-4.5,14.3-9.7,89.6,13.3,85.6c29.9-5.2,24.2-65.5,24.7-88.6
				c0.7-34.2,5.2-68.2,9.8-102c2.3-17.3,4.7-34.8,10.2-51.3c4.3-12.9,10.4-25,14.7-37.9C228.3,37.2,229,35,229.6,32.7z"/>
		</g>
		<g>
			<path class="st0" d="M176.7-109.7c3.5-12.6,5.2-25.8,5-39c-0.1-4-0.3-8.2-2.2-11.7c-1.9-3.4-5.1-5.5-8.2-7.3
				c-10.7-5.9-22.7-8.8-34.6-8.4c-3.4,0.1-6.8,0.6-9.7,2.4c-4.9,3.2-7.1,9.9-8.2,16.1c-7,39.4,12,78.2,16.8,118
				c3.9,31.7-1.6,64.7-15.3,92.8c-6.2,12.6-13.9,24.3-18.2,37.8c-4.5,14.3-9.7,89.6,13.3,85.6c29.9-5.2,24.2-65.5,24.7-88.6
				c0.7-34.2,5.2-68.2,9.8-102c2.3-17.4,4.7-34.8,10.2-51.3c4.3-12.9,10.4-24.9,14.7-37.9C175.5-105.3,176.1-107.5,176.7-109.7z"/>
		</g>
		<g class="st1">
			<path class="st2" d="M259.5,214.7c3.5-12.6,5.2-25.8,5-39c-0.1-4-0.3-8.2-2.2-11.7c-1.9-3.4-5.1-5.5-8.2-7.3
				c-10.7-5.9-22.7-8.8-34.6-8.4c-3.4,0.1-6.8,0.6-9.7,2.4c-4.9,3.2-7.1,9.9-8.2,16.1c-7,39.4,12,78.2,16.8,118
				c3.9,31.7-1.6,64.7-15.4,92.8c-6.1,12.6-13.9,24.3-18.2,37.8c-4.5,14.3-9.7,89.6,13.3,85.6c29.9-5.2,24.2-65.5,24.7-88.6
				c0.7-34.2,5.2-68.2,9.8-102c2.3-17.4,4.7-34.8,10.2-51.3c4.3-12.9,10.4-24.9,14.7-37.9C258.2,219.2,258.9,217,259.5,214.7z"/>
		</g>
		<g class="st1">
			<path class="st2" d="M200.6,46.7c3.5-12.6,5.2-25.8,5-39c-0.1-4-0.3-8.2-2.2-11.7c-1.9-3.4-5.1-5.5-8.2-7.3
				c-10.7-5.9-22.7-8.8-34.6-8.4c-3.4,0.1-6.8,0.5-9.7,2.4c-4.9,3.2-7.1,9.9-8.2,16.1c-7,39.4,12,78.2,16.8,118
				c3.9,31.7-1.6,64.7-15.4,92.8c-6.1,12.6-13.9,24.3-18.2,37.8c-4.5,14.3-9.7,89.6,13.3,85.6c29.9-5.2,24.2-65.5,24.7-88.6
				c0.7-34.2,5.2-68.2,9.8-102c2.3-17.3,4.7-34.8,10.2-51.3c4.3-12.9,10.4-24.9,14.7-37.9C199.3,51.1,200,48.9,200.6,46.7z"/>
		</g>
		<g class="st1">
			<path class="st2" d="M147.8-95.8c3.5-12.6,5.2-25.8,5-39c-0.1-4-0.3-8.2-2.2-11.7c-1.9-3.4-5.1-5.5-8.2-7.3
				c-10.7-5.9-22.7-8.8-34.6-8.4c-3.4,0.1-6.8,0.6-9.7,2.4c-4.9,3.2-7.1,9.9-8.2,16.1c-7,39.4,12,78.2,16.8,118
				C110.5,6,105.1,39,91.4,67.1c-6.2,12.7-14,24.4-18.3,37.9c-4.5,14.3-9.7,89.6,13.3,85.6c29.9-5.2,24.2-65.5,24.7-88.6
				c0.7-34.2,5.2-68.2,9.8-102c2.3-17.4,4.7-34.8,10.2-51.3c4.3-12.9,10.4-24.9,14.7-37.9C146.5-91.4,147.2-93.6,147.8-95.8z"/>
		</g>
		<g class="st3">
			<path class="st4" d="M259.5,284c3.5-12.6,5.2-25.8,5-39c-0.1-4-0.3-8.2-2.2-11.7c-1.9-3.4-5.1-5.5-8.2-7.3
				c-10.7-5.9-22.7-8.8-34.6-8.4c-3.4,0.1-6.8,0.6-9.7,2.4c-4.9,3.2-7.1,9.9-8.2,16.1c-7,39.4,12,78.2,16.8,118
				c3.9,31.7-1.6,64.7-15.4,92.8c-6.1,12.6-13.9,24.3-18.2,37.8c-4.5,14.3-9.7,89.6,13.3,85.6c29.9-5.2,24.2-65.5,24.7-88.6
				c0.7-34.2,5.2-68.2,9.8-102c2.3-17.4,4.7-34.8,10.2-51.3c4.3-12.9,10.4-25,14.7-37.9C258.2,288.4,258.9,286.2,259.5,284z"/>
		</g>
		<g class="st3">
			<path class="st4" d="M200.6,115.9c3.5-12.6,5.2-25.8,5-39c-0.1-4-0.3-8.2-2.2-11.7c-1.9-3.4-5.1-5.5-8.2-7.3
				c-10.7-5.9-22.7-8.8-34.6-8.4c-3.4,0.1-6.8,0.5-9.7,2.4c-4.9,3.2-7.1,9.9-8.2,16.1c-7,39.4,12,78.2,16.8,118
				c3.9,31.7-1.6,64.7-15.4,92.8c-6.1,12.6-13.9,24.3-18.2,37.8c-4.5,14.3-9.7,89.6,13.3,85.6c29.9-5.2,24.2-65.5,24.7-88.6
				c0.7-34.2,5.2-68.2,9.8-102c2.3-17.4,4.7-34.8,10.2-51.3c4.3-12.9,10.4-24.9,14.7-37.9C199.3,120.3,200,118.1,200.6,115.9z"/>
		</g>
		<g class="st3">
			<path class="st4" d="M147.8-26.5c3.5-12.6,5.2-25.8,5-39c-0.1-4-0.3-8.2-2.2-11.7c-1.9-3.4-5.1-5.5-8.2-7.3
				c-10.7-5.9-22.7-8.8-34.6-8.4c-3.4,0.1-6.8,0.6-9.7,2.4c-4.9,3.2-7.1,9.9-8.2,16.1c-7,39.4,12,78.2,16.8,118
				c3.8,31.7-1.6,64.7-15.3,92.8c-6.2,12.6-13.9,24.3-18.2,37.8c-4.5,14.3-9.7,89.6,13.3,85.6c29.9-5.2,24.2-65.5,24.7-88.6
				c0.7-34.2,5.2-68.2,9.8-102c2.3-17.3,4.7-34.8,10.2-51.3c4.3-12.9,10.4-25,14.7-37.9C146.5-22.1,147.2-24.4,147.8-26.5z"/>
		</g>
	</g>
	<g>
		<g>
			<path class="st0" d="M99.2-217c3.5-12.6,5.2-25.8,5-39c-0.1-4-0.3-8.2-2.2-11.7c-1.9-3.4-5.1-5.5-8.2-7.3
				c-10.7-5.9-22.7-8.8-34.6-8.4c-3.4,0.1-6.8,0.5-9.7,2.4c-4.9,3.2-7.1,9.9-8.2,16.1c-7,39.4,12,78.2,16.8,118
				c3.8,31.7-1.6,64.7-15.3,92.8c-6.2,12.6-13.9,24.3-18.2,37.8C20-1.9,14.9,73.4,37.9,69.4c29.9-5.2,24.2-65.5,24.7-88.6
				c0.7-34.2,5.2-68.2,9.8-102c2.3-17.3,4.7-34.8,10.2-51.3c4.3-12.9,10.4-24.9,14.7-37.9C97.9-212.6,98.6-214.8,99.2-217z"/>
		</g>
		<g>
			<path class="st0" d="M40.3-385c3.5-12.6,5.2-25.8,5-39c-0.1-4-0.3-8.2-2.2-11.7c-1.9-3.4-5.1-5.5-8.2-7.3
				c-10.7-5.9-22.7-8.8-34.6-8.4c-3.4,0.1-6.8,0.5-9.7,2.4c-4.9,3.2-7.1,9.9-8.2,16.1c-7,39.4,12,78.2,16.8,118
				C3-283.2-2.4-250.2-16.2-222c-6.1,12.6-13.9,24.3-18.2,37.8C-38.9-169.9-44-94.6-21-98.7c29.9-5.2,24.2-65.5,24.7-88.6
				c0.7-34.2,5.2-68.2,9.8-102c2.3-17.4,4.7-34.8,10.2-51.3c4.3-12.9,10.4-25,14.7-37.9C39-380.6,39.7-382.8,40.3-385z"/>
		</g>
		<g>
			<path class="st0" d="M-12.5-527.5c3.5-12.6,5.2-25.8,5-39c-0.1-4-0.3-8.2-2.2-11.7c-1.9-3.4-5.1-5.5-8.2-7.3
				c-10.7-5.9-22.7-8.8-34.6-8.4c-3.4,0.1-6.8,0.5-9.7,2.4c-4.9,3.2-7.1,9.9-8.2,16.1c-7,39.4,12,78.2,16.8,118
				c3.8,31.7-1.6,64.7-15.3,92.8c-6.2,12.6-13.9,24.3-18.2,37.8c-4.5,14.3-9.7,89.6,13.3,85.6c29.9-5.2,24.2-65.5,24.7-88.6
				c0.7-34.2,5.2-68.2,9.8-102c2.3-17.4,4.7-34.8,10.2-51.3c4.3-12.9,10.4-25,14.7-37.9C-13.8-523.1-13.1-525.3-12.5-527.5z"/>
		</g>
		<g class="st1">
			<path class="st2" d="M70.3-203c3.5-12.6,5.2-25.8,5-39c-0.1-4-0.3-8.2-2.2-11.7c-1.9-3.4-5.1-5.5-8.2-7.3
				c-10.7-5.9-22.7-8.8-34.6-8.4c-3.4,0.1-6.8,0.5-9.7,2.4c-4.9,3.2-7.1,9.9-8.2,16.1c-7,39.4,12,78.2,16.8,118
				c3.9,31.7-1.6,64.7-15.4,92.8C7.7-27.5-0.1-15.7-4.4-2.2C-8.9,12.1-14,87.4,9,83.3c29.9-5.2,24.3-65.5,24.7-88.6
				c0.7-34.2,5.2-68.2,9.8-102c2.3-17.3,4.7-34.8,10.2-51.3c4.3-12.9,10.4-24.9,14.7-37.9C69-198.6,69.7-200.8,70.3-203z"/>
		</g>
		<g class="st1">
			<path class="st2" d="M11.4-371.1c3.5-12.6,5.2-25.8,5-39c-0.1-4-0.3-8.2-2.2-11.7c-1.9-3.4-5.1-5.5-8.2-7.3
				c-10.7-5.9-22.7-8.8-34.6-8.4c-3.4,0.1-6.8,0.5-9.7,2.4c-4.9,3.2-7.1,9.9-8.2,16.1c-7,39.4,12,78.2,16.8,118
				c3.9,31.7-1.6,64.7-15.4,92.8c-6.2,12.6-13.9,24.3-18.2,37.8C-67.8-156.1-73-80.8-50-84.8c29.9-5.2,24.2-65.5,24.7-88.6
				c0.7-34.2,5.2-68.2,9.8-102c2.3-17.4,4.7-34.8,10.2-51.3c4.3-12.9,10.4-25,14.7-37.9C10.1-366.6,10.8-368.9,11.4-371.1z"/>
		</g>
		<g class="st1">
			<path class="st2" d="M-41.4-513.6c3.5-12.6,5.2-25.8,5-39c-0.1-4-0.3-8.2-2.2-11.7c-1.9-3.4-5.1-5.5-8.2-7.3
				c-10.7-5.9-22.7-8.8-34.6-8.4c-3.4,0.1-6.8,0.5-9.7,2.4c-4.9,3.2-7.1,9.9-8.2,16.1c-7,39.4,12,78.2,16.8,118
				c3.8,31.7-1.6,64.7-15.3,92.8c-6.2,12.6-13.9,24.3-18.2,37.8c-4.5,14.3-9.7,89.6,13.3,85.6c29.9-5.2,24.2-65.5,24.7-88.6
				c0.7-34.2,5.2-68.2,9.8-102c2.3-17.4,4.7-34.8,10.2-51.3c4.3-12.9,10.4-25,14.7-37.9C-42.7-509.1-42-511.3-41.4-513.6z"/>
		</g>
		<g class="st3">
			<path class="st4" d="M70.3-133.8c3.5-12.6,5.2-25.8,5-39c-0.1-4-0.3-8.2-2.2-11.7c-1.9-3.4-5.1-5.5-8.2-7.3
				c-10.7-5.9-22.7-8.8-34.6-8.4c-3.4,0.1-6.8,0.6-9.7,2.4c-4.9,3.2-7.1,9.9-8.2,16.1c-7,39.4,12,78.2,16.8,118
				C33.1-32,27.6,1,13.9,29.2C7.7,41.8-0.1,53.5-4.4,67C-8.9,81.3-14,156.6,9,152.5c29.9-5.2,24.2-65.5,24.7-88.6
				c0.7-34.2,5.2-68.2,9.8-102c2.3-17.3,4.7-34.8,10.2-51.3c4.3-12.9,10.4-24.9,14.7-37.9C69-129.4,69.7-131.6,70.3-133.8z"/>
		</g>
		<g class="st3">
			<path class="st4" d="M11.4-301.9c3.5-12.6,5.2-25.8,5-39c-0.1-4-0.3-8.2-2.2-11.7c-1.9-3.4-5.1-5.5-8.2-7.3
				c-10.7-5.9-22.7-8.8-34.6-8.4c-3.4,0.1-6.8,0.5-9.7,2.4c-4.9,3.2-7.1,9.9-8.2,16.1c-7,39.4,12,78.2,16.8,118
				c3.9,31.7-1.6,64.7-15.4,92.8c-6.2,12.6-13.9,24.3-18.2,37.8C-67.8-86.9-73-11.6-50-15.6c30-5.1,24.3-65.4,24.8-88.5
				c0.7-34.2,5.2-68.2,9.8-102c2.3-17.4,4.7-34.8,10.2-51.3c4.3-12.9,10.4-25,14.7-37.9C10.1-297.4,10.8-299.6,11.4-301.9z"/>
		</g>
		<g class="st3">
			<path class="st4" d="M-41.4-444.4c3.5-12.6,5.2-25.8,5-39c-0.1-4-0.3-8.2-2.2-11.7c-1.9-3.4-5.1-5.5-8.2-7.3
				c-10.7-5.9-22.7-8.8-34.6-8.4c-3.4,0.1-6.8,0.5-9.7,2.4c-4.9,3.2-7.1,9.9-8.2,16.1c-7,39.4,12,78.2,16.8,118
				c3.8,31.7-1.6,64.7-15.3,92.8c-6.2,12.6-13.9,24.3-18.2,37.8c-4.5,14.3-9.7,89.6,13.3,85.6c29.9-5.2,24.2-65.5,24.7-88.6
				c0.7-34.2,5.2-68.2,9.8-102c2.3-17.4,4.7-34.8,10.2-51.3c4.3-12.9,10.4-25,14.7-37.9C-42.7-439.9-42-442.1-41.4-444.4z"/>
		</g>
	</g>
	<g>
		<g>
			<path class="st0" d="M205.3-645.9c3.5-12.6,5.2-25.8,5-39c-0.1-4-0.3-8.2-2.2-11.7c-1.9-3.4-5.1-5.5-8.2-7.3
				c-10.7-5.9-22.7-8.8-34.6-8.4c-3.4,0.1-6.8,0.5-9.7,2.4c-4.9,3.2-7.1,9.9-8.2,16.1c-7,39.4,12,78.2,16.8,118
				c3.9,31.7-1.6,64.7-15.4,92.8c-6.1,12.6-13.9,24.3-18.2,37.8c-4.5,14.3-9.7,89.6,13.3,85.6c29.9-5.2,24.2-65.5,24.7-88.6
				c0.7-34.2,5.2-68.2,9.8-102c2.3-17.3,4.7-34.8,10.2-51.3c4.3-12.9,10.4-25,14.7-37.9C204-641.5,204.6-643.7,205.3-645.9z"/>
		</g>
		<g>
			<path class="st0" d="M146.4-814c3.5-12.6,5.2-25.8,5-39c-0.1-4-0.3-8.2-2.2-11.7c-1.9-3.4-5.1-5.5-8.2-7.3
				c-10.7-5.9-22.7-8.8-34.6-8.4c-3.4,0.1-6.8,0.5-9.7,2.4c-4.9,3.2-7.1,9.9-8.2,16.1c-7,39.4,12,78.2,16.8,118
				c3.8,31.7-1.6,64.7-15.3,92.8c-6.2,12.6-13.9,24.3-18.2,37.8c-4.5,14.3-9.7,89.6,13.3,85.6c29.9-5.2,24.2-65.5,24.7-88.6
				c0.7-34.2,5.2-68.2,9.8-102c2.3-17.3,4.7-34.8,10.2-51.3c4.3-12.9,10.4-25,14.7-37.9C145.1-809.5,145.8-811.8,146.4-814z"/>
		</g>
		<g>
			<path class="st0" d="M93.6-956.4c3.5-12.6,5.2-25.8,5-39c-0.1-4-0.3-8.2-2.2-11.7c-1.9-3.4-5.1-5.5-8.2-7.3
				c-10.7-5.9-22.7-8.8-34.6-8.4c-3.4,0.1-6.8,0.5-9.7,2.4c-4.9,3.2-7.1,9.9-8.2,16.1c-7,39.4,12,78.2,16.8,118
				c3.8,31.7-1.6,64.7-15.3,92.8c-6.1,12.6-13.9,24.3-18.2,37.8c-4.5,14.3-9.7,89.6,13.3,85.6c29.9-5.2,24.2-65.5,24.7-88.6
				c0.7-34.2,5.2-68.2,9.8-102C69-878,71.4-895.5,76.9-912c4.3-12.9,10.4-25,14.7-37.9C92.3-952,92.9-954.2,93.6-956.4z"/>
		</g>
		<g class="st1">
			<path class="st2" d="M176.3-632c3.5-12.6,5.2-25.8,5-39c-0.1-4-0.3-8.2-2.2-11.7c-1.9-3.4-5.1-5.5-8.2-7.3
				c-10.7-5.9-22.7-8.8-34.6-8.4c-3.4,0.1-6.8,0.5-9.7,2.4c-4.9,3.2-7.1,9.9-8.2,16.1c-7,39.4,12,78.2,16.8,118
				c3.9,31.7-1.6,64.7-15.3,92.8c-6.2,12.6-13.9,24.3-18.2,37.8C97.2-417,92-341.7,115-345.7c29.9-5.2,24.2-65.5,24.7-88.6
				c0.7-34.2,5.2-68.2,9.8-102c2.3-17.3,4.7-34.8,10.2-51.3c4.3-12.9,10.4-25,14.7-37.9C175.1-627.6,175.8-629.8,176.3-632z"/>
		</g>
		<g class="st1">
			<path class="st2" d="M117.4-800c3.5-12.6,5.2-25.8,5-39c-0.1-4-0.3-8.2-2.2-11.7c-1.9-3.4-5.1-5.5-8.2-7.3
				c-10.7-5.9-22.7-8.8-34.6-8.4c-3.4,0.1-6.8,0.5-9.7,2.4c-4.9,3.2-7.1,9.9-8.2,16.1c-7,39.4,12,78.2,16.8,118
				c3.8,31.7-1.6,64.7-15.3,92.8c-6.2,12.6-13.9,24.3-18.2,37.8c-4.5,14.3-9.7,89.6,13.3,85.6c29.9-5.2,24.2-65.5,24.7-88.6
				c0.7-34.2,5.2-68.2,9.8-102c2.3-17.3,4.7-34.8,10.2-51.3c4.3-12.9,10.4-25,14.7-37.9C116.2-795.6,116.8-797.8,117.4-800z"/>
		</g>
		<g class="st1">
			<path class="st2" d="M64.6-942.5c3.5-12.6,5.2-25.8,5-39c-0.1-4-0.3-8.2-2.2-11.7c-1.9-3.4-5.1-5.5-8.2-7.3
				c-10.7-5.9-22.7-8.8-34.6-8.4c-3.4,0.1-6.8,0.5-9.7,2.4c-4.9,3.2-7.1,9.9-8.2,16.1c-7,39.4,12,78.2,16.8,118
				c3.9,31.7-1.6,64.7-15.4,92.8C2-766.9-5.7-755.2-10-741.7c-4.5,14.3-9.7,89.6,13.3,85.6c29.9-5.2,24.2-65.5,24.7-88.6
				c0.7-34.2,5.2-68.2,9.8-102C40.1-864,42.5-881.5,48-898c4.3-12.9,10.4-25,14.7-37.9C63.4-938.1,64-940.3,64.6-942.5z"/>
		</g>
		<g class="st3">
			<path class="st4" d="M176.3-562.8c3.5-12.6,5.2-25.8,5-39c-0.1-4-0.3-8.2-2.2-11.7c-1.9-3.4-5.1-5.5-8.2-7.3
				c-10.7-5.9-22.7-8.8-34.6-8.4c-3.4,0.1-6.8,0.5-9.7,2.4c-4.9,3.2-7.1,9.9-8.2,16.1c-7,39.4,12,78.2,16.8,118
				c3.9,31.7-1.6,64.7-15.3,92.8c-6.2,12.6-13.9,24.3-18.2,37.8c-4.5,14.3-9.7,89.6,13.3,85.6c29.9-5.2,24.2-65.5,24.7-88.6
				c0.7-34.2,5.2-68.2,9.8-102c2.3-17.4,4.7-34.8,10.2-51.3c4.3-12.9,10.4-25,14.7-37.9C175.1-558.3,175.8-560.5,176.3-562.8z"/>
		</g>
		<g class="st3">
			<path class="st4" d="M117.4-730.8c3.5-12.6,5.2-25.8,5-39c-0.1-4-0.3-8.2-2.2-11.7c-1.9-3.4-5.1-5.5-8.2-7.3
				c-10.7-5.9-22.7-8.8-34.6-8.4c-3.4,0.1-6.8,0.5-9.7,2.4c-4.9,3.2-7.1,9.9-8.2,16.1c-7,39.4,12,78.2,16.8,118
				C80.1-629,74.7-596,61-567.9c-6.2,12.6-13.9,24.3-18.2,37.8c-4.5,14.3-9.7,89.6,13.3,85.6c29.9-5.2,24.2-65.5,24.7-88.6
				c0.7-34.2,5.2-68.2,9.8-102c2.3-17.3,4.7-34.8,10.2-51.3c4.3-12.9,10.4-25,14.7-37.9C116.2-726.4,116.8-728.6,117.4-730.8z"/>
		</g>
		<g class="st3">
			<path class="st4" d="M64.6-873.3c3.5-12.6,5.2-25.8,5-39c-0.1-4-0.3-8.2-2.2-11.7c-1.9-3.4-5.1-5.5-8.2-7.3
				c-10.7-5.9-22.7-8.8-34.6-8.4c-3.4,0.1-6.8,0.5-9.7,2.4c-4.9,3.2-7.1,9.9-8.2,16.1c-7,39.4,12,78.2,16.8,118
				c3.9,31.7-1.6,64.7-15.4,92.8C2-697.7-5.7-686-10-672.5c-4.5,14.3-9.7,89.6,13.3,85.6c29.9-5.2,24.2-65.5,24.7-88.6
				c0.7-34.2,5.2-68.2,9.8-102c2.3-17.3,4.7-34.8,10.2-51.3c4.3-12.9,10.4-25,14.7-37.9C63.4-868.8,64-871,64.6-873.3z"/>
		</g>
	</g>
	<g>
		<path class="st0" d="M330.2-1025.7c3.5-12.6,5.2-25.8,5-39c-0.1-4-0.3-8.2-2.2-11.7c-1.9-3.4-5.1-5.5-8.2-7.3
			c-10.7-5.9-22.7-8.8-34.6-8.4c-3.4,0.1-6.8,0.6-9.7,2.4c-4.9,3.2-7.1,9.9-8.2,16.1c-7,39.4,12,78.2,16.8,118
			c3.9,31.7-1.6,64.7-15.4,92.8c-6.1,12.6-13.9,24.3-18.2,37.8c-4.5,14.3-9.7,89.6,13.3,85.6c29.9-5.2,24.2-65.5,24.7-88.6
			c0.7-34.2,5.2-68.2,9.8-102c2.3-17.3,4.7-34.8,10.2-51.3c4.3-12.9,10.4-25,14.7-37.9C328.9-1021.2,329.6-1023.4,330.2-1025.7z"/>
	</g>
	<g>
		<path class="st0" d="M271.4-1193.7c3.5-12.6,5.2-25.8,5-39c-0.1-4-0.3-8.2-2.2-11.7c-1.9-3.4-5.1-5.5-8.2-7.3
			c-10.7-5.9-22.7-8.8-34.6-8.4c-3.4,0.1-6.8,0.6-9.7,2.4c-4.9,3.2-7.1,9.9-8.2,16.1c-7,39.4,12,78.2,16.8,118
			c3.9,31.7-1.6,64.7-15.4,92.8c-6.1,12.6-13.9,24.3-18.2,37.8c-4.5,14.3-9.7,89.6,13.3,85.6c29.9-5.2,24.2-65.5,24.7-88.6
			c0.7-34.2,5.2-68.2,9.8-102c2.3-17.3,4.7-34.8,10.2-51.3c4.3-12.9,10.4-24.9,14.7-37.9C270.1-1189.3,270.7-1191.5,271.4-1193.7z"
			/>
	</g>
	<g class="st1">
		<path class="st2" d="M301.3-1011.7c3.5-12.6,5.2-25.8,5-39c-0.1-4-0.3-8.2-2.2-11.7c-1.9-3.4-5.1-5.5-8.2-7.3
			c-10.7-5.9-22.7-8.8-34.6-8.4c-3.4,0.1-6.8,0.6-9.7,2.4c-4.9,3.2-7.1,9.9-8.2,16.1c-7,39.4,12,78.2,16.8,118
			c3.9,31.7-1.6,64.7-15.4,92.8c-6.1,12.6-13.9,24.3-18.2,37.8c-4.5,14.3-9.7,89.6,13.3,85.6c29.9-5.2,24.2-65.5,24.7-88.6
			c0.7-34.2,5.2-68.2,9.8-102c2.3-17.3,4.7-34.8,10.2-51.3c4.3-12.9,10.4-25,14.7-37.9C300-1007.3,300.7-1009.5,301.3-1011.7z"/>
	</g>
	<g class="st1">
		<path class="st2" d="M242.4-1179.8c3.5-12.6,5.2-25.8,5-39c-0.1-4-0.3-8.2-2.2-11.7c-1.9-3.4-5.1-5.5-8.2-7.3
			c-10.7-5.9-22.7-8.8-34.6-8.4c-3.4,0.1-6.8,0.6-9.7,2.4c-4.9,3.2-7.1,9.9-8.2,16.1c-7,39.4,12,78.2,16.8,118
			c3.9,31.7-1.6,64.7-15.4,92.8c-6.1,12.6-13.9,24.3-18.2,37.8c-4.5,14.3-9.7,89.6,13.3,85.6c29.9-5.2,24.2-65.5,24.7-88.6
			c0.7-34.2,5.2-68.2,9.8-102c2.3-17.3,4.7-34.8,10.2-51.3c4.3-12.9,10.4-24.9,14.7-37.9C241.1-1175.3,241.8-1177.5,242.4-1179.8z"
			/>
	</g>
	<g class="st3">
		<path class="st4" d="M301.3-942.5c3.5-12.6,5.2-25.8,5-39c-0.1-4-0.3-8.2-2.2-11.7c-1.9-3.4-5.1-5.5-8.2-7.3
			c-10.7-5.9-22.7-8.8-34.6-8.4c-3.4,0.1-6.8,0.5-9.7,2.4c-4.9,3.2-7.1,9.9-8.2,16.1c-7,39.4,12,78.2,16.8,118
			c3.9,31.7-1.6,64.7-15.4,92.8c-6.1,12.6-13.9,24.3-18.2,37.8c-4.5,14.3-9.7,89.6,13.3,85.6c29.9-5.2,24.2-65.5,24.7-88.6
			c0.7-34.2,5.2-68.2,9.8-102c2.3-17.3,4.7-34.8,10.2-51.3c4.3-12.9,10.4-25,14.7-37.9C300-938.1,300.7-940.3,301.3-942.5z"/>
	</g>
	<g class="st3">
		<path class="st4" d="M242.4-1110.6c3.5-12.6,5.2-25.8,5-39c-0.1-4-0.3-8.2-2.2-11.7c-1.9-3.4-5.1-5.5-8.2-7.3
			c-10.7-5.9-22.7-8.8-34.6-8.4c-3.4,0.1-6.8,0.6-9.7,2.4c-4.9,3.2-7.1,9.9-8.2,16.1c-7,39.4,12,78.2,16.8,118
			c3.9,31.7-1.6,64.7-15.4,92.8c-6.1,12.6-13.9,24.3-18.2,37.8c-4.5,14.3-9.7,89.6,13.3,85.6c29.9-5.2,24.2-65.5,24.7-88.6
			c0.7-34.2,5.2-68.2,9.8-102c2.3-17.4,4.7-34.8,10.2-51.3c4.3-12.9,10.4-24.9,14.7-37.9C241.1-1106.1,241.8-1108.3,242.4-1110.6z"
			/>
	</g>
	<g>
		<path class="st0" d="M533,41.5c3.5-12.6,5.2-25.8,5-39c-0.1-4-0.3-8.2-2.2-11.7c-1.9-3.4-5.1-5.5-8.2-7.3
			c-10.7-5.9-22.7-8.8-34.6-8.4c-3.4,0.1-6.8,0.5-9.7,2.4c-4.9,3.2-7.1,9.9-8.2,16.1c-7,39.4,12,78.2,16.8,118
			c3.9,31.7-1.6,64.7-15.4,92.8c-6.1,12.6-13.9,24.3-18.2,37.8c-4.5,14.3-9.7,89.6,13.3,85.6c29.9-5.2,24.2-65.5,24.7-88.6
			c0.7-34.2,5.2-68.2,9.8-102c2.3-17.3,4.7-34.8,10.2-51.3c4.3-12.9,10.4-25,14.7-37.9C531.7,46,532.4,43.8,533,41.5z"/>
	</g>
	<g>
		<path class="st0" d="M480.2-101c3.5-12.6,5.2-25.8,5-39c-0.1-4-0.3-8.2-2.2-11.7c-1.9-3.4-5.1-5.5-8.2-7.3
			c-10.7-5.9-22.7-8.8-34.6-8.4c-3.4,0.1-6.8,0.6-9.7,2.4c-4.9,3.2-7.1,9.9-8.2,16.1c-7,39.4,12,78.2,16.8,118
			c3.9,31.7-1.6,64.7-15.4,92.8c-6.1,12.6-13.9,24.3-18.2,37.8c-4.5,14.3-9.7,89.6,13.3,85.6c29.9-5.2,24.2-65.5,24.7-88.6
			c0.7-34.2,5.2-68.2,9.8-102c2.3-17.4,4.7-34.8,10.2-51.3c4.3-12.9,10.4-24.9,14.7-37.9C478.9-96.5,479.6-98.7,480.2-101z"/>
	</g>
	<g class="st1">
		<path class="st2" d="M504,55.5c3.5-12.6,5.2-25.8,5-39c-0.1-4-0.3-8.2-2.2-11.7c-1.9-3.4-5.1-5.5-8.2-7.3
			c-10.7-5.9-22.7-8.8-34.6-8.4c-3.4,0.1-6.8,0.6-9.7,2.4c-4.9,3.2-7.1,9.9-8.2,16.1c-7,39.4,12,78.2,16.8,118
			c3.9,31.7-1.6,64.7-15.4,92.8c-6.1,12.6-13.9,24.3-18.2,37.8c-4.5,14.3-9.7,89.6,13.3,85.6c29.9-5.2,24.2-65.5,24.7-88.6
			c0.7-34.2,5.2-68.2,9.8-102c2.3-17.4,4.7-34.8,10.2-51.3C491.6,87,497.8,75,502,62.1C502.8,59.9,503.4,57.7,504,55.5z"/>
	</g>
	<g class="st1">
		<path class="st2" d="M451.2-87c3.5-12.6,5.2-25.8,5-39c-0.1-4-0.3-8.2-2.2-11.7c-1.9-3.4-5.1-5.5-8.2-7.3
			c-10.7-5.9-22.7-8.8-34.6-8.4c-3.4,0.1-6.8,0.6-9.7,2.4c-4.9,3.2-7.1,9.9-8.2,16.1c-7,39.4,12,78.2,16.8,118
			c3.9,31.7-1.6,64.7-15.4,92.8c-6.1,12.6-13.9,24.3-18.2,37.8c-4.5,14.3-9.7,89.6,13.3,85.6c29.9-5.2,24.2-65.5,24.7-88.6
			c0.7-34.2,5.2-68.2,9.8-102c2.3-17.4,4.7-34.8,10.2-51.3c4.3-12.9,10.4-24.9,14.7-37.9C450-82.6,450.6-84.8,451.2-87z"/>
	</g>
	<g class="st3">
		<path class="st4" d="M504,124.7c3.5-12.6,5.2-25.8,5-39c-0.1-4-0.3-8.2-2.2-11.7c-1.9-3.4-5.1-5.5-8.2-7.3
			c-10.7-5.9-22.7-8.8-34.6-8.4c-3.4,0.1-6.8,0.5-9.7,2.4c-4.9,3.2-7.1,9.9-8.2,16.1c-7,39.4,12,78.2,16.8,118
			c3.9,31.7-1.6,64.7-15.4,92.8c-6.1,12.6-13.9,24.3-18.2,37.8c-4.5,14.3-9.7,89.6,13.3,85.6c29.9-5.2,24.2-65.5,24.7-88.6
			c0.7-34.2,5.2-68.2,9.8-102c2.3-17.4,4.7-34.8,10.2-51.3c4.3-12.9,10.4-24.9,14.7-37.9C502.8,129.1,503.4,126.9,504,124.7z"/>
	</g>
	<g class="st3">
		<path class="st4" d="M451.2-17.8c3.5-12.6,5.2-25.8,5-39c-0.1-4-0.3-8.2-2.2-11.7c-1.9-3.4-5.1-5.5-8.2-7.3
			c-10.7-5.9-22.7-8.8-34.6-8.4c-3.4,0.1-6.8,0.6-9.7,2.4c-4.9,3.2-7.1,9.9-8.2,16.1c-7,39.4,12,78.2,16.8,118
			c3.9,31.7-1.6,64.7-15.4,92.8c-6.1,12.6-13.9,24.3-18.2,37.8c-4.5,14.3-9.7,89.6,13.3,85.6c29.9-5.2,24.2-65.5,24.7-88.6
			c0.7-34.2,5.2-68.2,9.8-102c2.3-17.3,4.7-34.8,10.2-51.3c4.3-12.9,10.4-25,14.7-37.9C450-13.4,450.6-15.6,451.2-17.8z"/>
	</g>
	<g>
		<path class="st0" d="M417.8,487.7c3.5-12.6,5.2-25.8,5-39c-0.1-4-0.3-8.2-2.2-11.7c-1.9-3.4-5.1-5.5-8.2-7.3
			c-10.7-5.9-22.7-8.8-34.6-8.4c-3.4,0.1-6.8,0.5-9.7,2.4c-4.9,3.2-7.1,9.9-8.2,16.1c-7,39.4,12,78.2,16.8,118
			c3.9,31.7-1.6,64.7-15.4,92.8c-6.1,12.6-13.9,24.3-18.2,37.8c-4.5,14.3-9.7,89.6,13.3,85.6c29.9-5.2,24.2-65.5,24.7-88.6
			c0.7-34.2,5.2-68.2,9.8-102c2.3-17.3,4.7-34.8,10.2-51.3c4.3-12.9,10.4-25,14.7-37.9C416.5,492.1,417.2,489.9,417.8,487.7z"/>
	</g>
	<g>
		<path class="st0" d="M365,345.2c3.5-12.6,5.2-25.8,5-39c-0.1-4-0.3-8.2-2.2-11.7c-1.9-3.4-5.1-5.5-8.2-7.3
			c-10.7-5.9-22.7-8.8-34.6-8.4c-3.4,0.1-6.8,0.5-9.7,2.4c-4.9,3.2-7.1,9.9-8.2,16.1c-7,39.4,12,78.2,16.8,118
			c3.9,31.7-1.6,64.7-15.4,92.8c-6.1,12.6-13.9,24.3-18.2,37.8c-4.5,14.3-9.7,89.6,13.3,85.6c29.9-5.2,24.2-65.5,24.7-88.6
			c0.7-34.2,5.2-68.2,9.8-102c2.3-17.4,4.7-34.8,10.2-51.3c4.3-12.9,10.4-25,14.7-37.9C363.7,349.6,364.4,347.4,365,345.2z"/>
	</g>
	<g class="st1">
		<path class="st2" d="M388.9,501.7c3.5-12.6,5.2-25.8,5-39c-0.1-4-0.3-8.2-2.2-11.7c-1.9-3.4-5.1-5.5-8.2-7.3
			c-10.7-5.9-22.7-8.8-34.6-8.4c-3.4,0.1-6.8,0.5-9.7,2.4c-4.9,3.2-7.1,9.9-8.2,16.1c-7,39.4,12,78.2,16.8,118
			c3.9,31.7-1.6,64.7-15.4,92.8c-6.1,12.6-13.9,24.3-18.2,37.8c-4.5,14.3-9.7,89.6,13.3,85.6c29.9-5.2,24.2-65.5,24.7-88.6
			c0.7-34.2,5.2-68.2,9.8-102c2.3-17.3,4.7-34.8,10.2-51.3c4.3-12.9,10.4-25,14.7-37.9C387.6,506.1,388.2,503.9,388.9,501.7z"/>
	</g>
	<g class="st1">
		<path class="st2" d="M336,359.2c3.5-12.6,5.2-25.8,5-39c-0.1-4-0.3-8.2-2.2-11.7c-1.9-3.4-5.1-5.5-8.2-7.3
			c-10.7-5.9-22.7-8.8-34.6-8.4c-3.4,0.1-6.8,0.5-9.7,2.4c-4.9,3.2-7.1,9.9-8.2,16.1c-7,39.4,12,78.2,16.8,118
			c3.9,31.7-1.6,64.7-15.4,92.8c-6.1,12.6-13.9,24.3-18.2,37.8c-4.5,14.3-9.7,89.6,13.3,85.6c29.9-5.2,24.2-65.5,24.7-88.6
			c0.7-34.2,5.2-68.2,9.8-102c2.3-17.4,4.7-34.8,10.2-51.3c4.3-12.9,10.4-25,14.7-37.9C334.8,363.6,335.4,361.4,336,359.2z"/>
	</g>
	<g class="st3">
		<path class="st4" d="M388.9,570.9c3.5-12.6,5.2-25.8,5-39c-0.1-4-0.3-8.2-2.2-11.7c-1.9-3.4-5.1-5.5-8.2-7.3
			c-10.7-5.9-22.7-8.8-34.6-8.4c-3.4,0.1-6.8,0.5-9.7,2.4c-4.9,3.2-7.1,9.9-8.2,16.1c-7,39.4,12,78.2,16.8,118
			c3.9,31.7-1.6,64.7-15.4,92.8c-6.1,12.6-13.9,24.3-18.2,37.8c-4.5,14.3-9.7,89.6,13.3,85.6c29.9-5.2,24.2-65.5,24.7-88.6
			c0.7-34.2,5.2-68.2,9.8-102c2.3-17.3,4.7-34.8,10.2-51.3c4.3-12.9,10.4-25,14.7-37.9C387.6,575.3,388.2,573.1,388.9,570.9z"/>
	</g>
	<g class="st3">
		<path class="st4" d="M336,428.4c3.5-12.6,5.2-25.8,5-39c-0.1-4-0.3-8.2-2.2-11.7c-1.9-3.4-5.1-5.5-8.2-7.3
			c-10.7-5.9-22.7-8.8-34.6-8.4c-3.4,0.1-6.8,0.5-9.7,2.4c-4.9,3.2-7.1,9.9-8.2,16.1c-7,39.4,12,78.2,16.8,118
			c3.9,31.7-1.6,64.7-15.4,92.8c-6.1,12.6-13.9,24.3-18.2,37.8c-4.5,14.3-9.7,89.6,13.3,85.6c29.9-5.2,24.2-65.5,24.7-88.6
			c0.7-34.2,5.2-68.2,9.8-102c2.3-17.4,4.7-34.8,10.2-51.3c4.3-12.9,10.4-25,14.7-37.9C334.8,432.8,335.4,430.6,336,428.4z"/>
	</g>
	<g>
		<path class="st0" d="M16-1066.1c3.5-12.6,5.2-25.8,5-39c-0.1-4-0.3-8.2-2.2-11.7c-1.9-3.4-5.1-5.5-8.2-7.3
			c-10.7-5.9-22.7-8.8-34.6-8.4c-3.4,0.1-6.8,0.6-9.7,2.4c-4.9,3.2-7.1,9.9-8.2,16.1c-7,39.4,12,78.2,16.8,118
			c3.9,31.7-1.6,64.7-15.4,92.8c-6.2,12.6-13.9,24.3-18.2,37.8c-4.5,14.3-9.7,89.6,13.3,85.6c29.9-5.2,24.2-65.5,24.7-88.6
			c0.7-34.2,5.2-68.2,9.8-102c2.3-17.3,4.7-34.8,10.2-51.3c4.3-12.9,10.4-24.9,14.7-37.9C14.8-1061.6,15.4-1063.8,16-1066.1z"/>
	</g>
	<g class="st1">
		<path class="st2" d="M-12.9-1052.1c3.5-12.6,5.2-25.8,5-39c-0.1-4-0.3-8.2-2.2-11.7c-1.9-3.4-5.1-5.5-8.2-7.3
			c-10.7-5.9-22.7-8.8-34.6-8.4c-3.4,0.1-6.8,0.6-9.7,2.4c-4.9,3.2-7.1,9.9-8.2,16.1c-7,39.4,12,78.2,16.8,118
			c3.8,31.7-1.6,64.7-15.3,92.8c-6.2,12.6-13.9,24.3-18.2,37.8c-4.5,14.2-9.6,89.5,13.4,85.5c29.9-5.2,24.2-65.5,24.7-88.6
			c0.7-34.2,5.2-68.2,9.8-102c2.3-17.3,4.7-34.8,10.2-51.3c4.3-12.9,10.4-24.9,14.7-37.9C-14.2-1047.7-13.5-1049.9-12.9-1052.1z"/>
	</g>
	<g class="st3">
		<path class="st4" d="M-12.9-982.9c3.5-12.6,5.2-25.8,5-39c-0.1-4-0.3-8.2-2.2-11.7c-1.9-3.4-5.1-5.5-8.2-7.3
			c-10.7-5.9-22.7-8.8-34.6-8.4c-3.4,0.1-6.8,0.6-9.7,2.4c-4.9,3.2-7.1,9.9-8.2,16.1c-7,39.3,12,78.2,16.8,117.9
			c3.8,31.7-1.6,64.7-15.3,92.8c-6.2,12.6-13.9,24.3-18.2,37.8c-4.5,14.3-9.7,89.6,13.3,85.6c29.9-5.2,24.2-65.5,24.7-88.6
			c0.7-34.2,5.2-68.2,9.8-102c2.3-17.3,4.7-34.8,10.2-51.3c4.3-12.9,10.4-25,14.7-37.9C-14.2-978.5-13.5-980.7-12.9-982.9z"/>
	</g>
	<g>
		<path class="st0" d="M-96.1-645.9c3.5-12.6,5.2-25.8,5-39c-0.1-4-0.3-8.2-2.2-11.7c-1.9-3.4-5.1-5.5-8.2-7.3
			c-10.7-5.9-22.7-8.8-34.6-8.4c-3.4,0.1-6.8,0.5-9.7,2.4c-4.9,3.2-7.1,9.9-8.2,16.1c-7,39.4,12,78.2,16.8,118
			c3.9,31.7-1.6,64.7-15.4,92.8c-6.1,12.6-13.9,24.3-18.2,37.8c-4.5,14.3-9.7,89.6,13.3,85.6c29.9-5.2,24.2-65.5,24.7-88.6
			c0.7-34.2,5.2-68.2,9.8-102c2.3-17.3,4.7-34.8,10.2-51.3c4.3-12.9,10.4-25,14.7-37.9C-97.3-641.5-96.7-643.7-96.1-645.9z"/>
	</g>
	<g>
		<path class="st0" d="M-155-814c3.5-12.6,5.2-25.8,5-39c-0.1-4-0.3-8.2-2.2-11.7c-1.9-3.4-5.1-5.5-8.2-7.3
			c-10.7-6-22.7-8.9-34.6-8.4c-3.4,0.1-6.8,0.5-9.7,2.4c-5,3.2-7.1,9.9-8.2,16.1c-6.9,39.4,12,78.2,16.8,118
			c3.9,31.7-1.6,64.7-15.4,92.8c-6.1,12.6-13.9,24.3-18.2,37.8c-4.5,14.2-9.6,89.5,13.4,85.6c29.9-5.2,24.2-65.5,24.7-88.6
			c0.7-34.2,5.2-68.2,9.8-102c2.3-17.3,4.7-34.8,10.2-51.3c4.3-12.9,10.4-25,14.7-37.9C-156.2-809.5-155.6-811.8-155-814z"/>
	</g>
	<g class="st1">
		<path class="st2" d="M-125-632c3.5-12.6,5.2-25.8,5-39c-0.1-4-0.3-8.2-2.2-11.7c-1.9-3.4-5.1-5.5-8.2-7.3
			c-10.7-5.9-22.7-8.8-34.6-8.4c-3.4,0.1-6.8,0.5-9.7,2.4c-4.9,3.2-7.1,9.9-8.2,16.1c-7,39.4,12,78.2,16.8,118
			c3.9,31.7-1.6,64.7-15.4,92.8c-6.1,12.6-13.9,24.3-18.2,37.8c-4.5,14.3-9.7,89.6,13.3,85.6c29.9-5.2,24.2-65.5,24.7-88.6
			c0.7-34.2,5.2-68.2,9.8-102c2.3-17.3,4.7-34.8,10.2-51.3c4.3-12.9,10.4-25,14.7-37.9C-126.3-627.6-125.6-629.8-125-632z"/>
	</g>
	<g class="st1">
		<path class="st2" d="M-183.9-800c3.5-12.6,5.2-25.8,5-39c-0.1-4-0.3-8.2-2.2-11.7c-1.9-3.4-5.1-5.5-8.2-7.3
			c-10.7-6-22.7-8.8-34.6-8.4c-3.3,0.1-6.8,0.5-9.7,2.4c-4.9,3.2-7.1,9.9-8.2,16.1c-7,39.4,12,78.2,16.8,118
			c3.9,31.7-1.6,64.7-15.4,92.8c-6.1,12.6-13.9,24.3-18.2,37.8c-4.5,14.3-9.7,89.6,13.3,85.6c29.9-5.2,24.2-65.5,24.7-88.6
			c0.7-34.2,5.2-68.2,9.8-102c2.3-17.3,4.7-34.8,10.2-51.3c4.3-12.9,10.4-25,14.7-37.9C-185.2-795.6-184.5-797.8-183.9-800z"/>
	</g>
	<g class="st3">
		<path class="st4" d="M-125-562.8c3.5-12.6,5.2-25.8,5-39c-0.1-4-0.3-8.2-2.2-11.7c-1.9-3.4-5.1-5.5-8.2-7.3
			c-10.7-5.9-22.7-8.8-34.6-8.4c-3.4,0.1-6.8,0.5-9.7,2.4c-4.9,3.2-7.1,9.9-8.2,16.1c-7,39.4,12,78.2,16.8,118
			c3.9,31.7-1.6,64.7-15.4,92.8c-6.1,12.6-13.9,24.3-18.2,37.8c-4.5,14.3-9.7,89.6,13.3,85.6c29.9-5.2,24.2-65.5,24.7-88.6
			c0.7-34.2,5.2-68.2,9.8-102c2.3-17.4,4.7-34.8,10.2-51.3c4.3-12.9,10.4-25,14.7-37.9C-126.3-558.3-125.6-560.5-125-562.8z"/>
	</g>
	<g class="st3">
		<path class="st4" d="M-183.9-730.8c3.5-12.6,5.2-25.8,5-39c-0.1-4-0.3-8.2-2.2-11.7c-1.9-3.4-5.1-5.5-8.2-7.3
			c-10.7-5.9-22.7-8.8-34.6-8.4c-3.4,0.1-6.8,0.5-9.7,2.4c-4.9,3.2-7.1,9.9-8.2,16.1c-7,39.4,12,78.2,16.8,118
			c3.9,31.7-1.6,64.7-15.4,92.8c-6.1,12.6-13.9,24.3-18.2,37.8c-4.5,14.3-9.7,89.6,13.3,85.6c29.9-5.2,24.2-65.5,24.7-88.6
			c0.7-34.2,5.2-68.2,9.8-102c2.3-17.3,4.7-34.8,10.2-51.3c4.3-12.9,10.4-25,14.7-37.9C-185.2-726.4-184.5-728.6-183.9-730.8z"/>
	</g>
	<g>
		<g>
			<path class="st0" d="M-25.7,110.5c3.5-12.6,5.2-25.8,5-39c-0.1-4-0.3-8.2-2.2-11.7c-1.9-3.4-5.1-5.5-8.2-7.3
				c-10.7-5.9-22.7-8.8-34.6-8.4c-3.4,0.1-6.8,0.5-9.7,2.4c-4.9,3.2-7.1,9.9-8.2,16.1c-7,39.4,12,78.2,16.8,118
				c3.8,31.7-1.6,64.7-15.3,92.8c-6.2,12.6-13.9,24.3-18.2,37.8c-4.5,14.3-9.7,89.6,13.3,85.6c29.9-5.2,24.2-65.5,24.7-88.6
				c0.7-34.2,5.2-68.2,9.8-102c2.3-17.4,4.7-34.8,10.2-51.3C-38,142-31.9,130-27.6,117C-27,114.9-26.4,112.7-25.7,110.5z"/>
		</g>
		<g>
			<path class="st0" d="M-84.6-57.5c3.5-12.6,5.2-25.8,5-39c-0.1-4-0.3-8.2-2.2-11.7c-1.9-3.4-5.1-5.5-8.2-7.3
				c-10.7-5.9-22.7-8.8-34.6-8.4c-3.4,0.1-6.8,0.6-9.7,2.4c-4.9,3.2-7.1,9.9-8.2,16.1c-7,39.4,12,78.2,16.8,118
				c3.8,31.7-1.6,64.7-15.4,92.8c-6.1,12.6-13.9,24.3-18.2,37.8c-4.5,14.3-9.7,89.6,13.3,85.6c29.9-5.2,24.2-65.5,24.7-88.6
				c0.7-34.2,5.2-68.2,9.8-102c2.3-17.4,4.7-34.8,10.2-51.3C-97-26-90.9-38-86.6-50.9C-85.9-53.1-85.3-55.3-84.6-57.5z"/>
		</g>
		<g>
			<path class="st0" d="M-137.4-200c3.5-12.6,5.2-25.8,5-39c-0.1-4-0.3-8.2-2.2-11.7c-1.9-3.4-5.1-5.5-8.2-7.3
				c-10.7-5.9-22.7-8.8-34.6-8.4c-3.4,0.1-6.8,0.5-9.7,2.4c-4.9,3.2-7.1,9.9-8.2,16.1c-7,39.4,12,78.2,16.8,118
				c3.9,31.7-1.6,64.7-15.4,92.8c-6.1,12.6-13.9,24.3-18.2,37.8c-4.5,14.3-9.7,89.6,13.3,85.6c29.9-5.2,24.2-65.5,24.7-88.6
				c0.7-34.2,5.2-68.2,9.8-102c2.3-17.3,4.7-34.8,10.2-51.3c4.3-12.9,10.4-24.9,14.7-37.9C-138.8-195.6-138.1-197.8-137.4-200z"/>
		</g>
		<g class="st1">
			<path class="st2" d="M-54.7,124.5c3.5-12.6,5.2-25.8,5-39c-0.1-4-0.3-8.2-2.2-11.7c-1.9-3.4-5.1-5.5-8.2-7.3
				c-10.7-5.9-22.7-8.8-34.6-8.4c-3.4,0.1-6.8,0.5-9.7,2.4c-4.9,3.2-7.1,9.9-8.2,16.1c-7,39.4,12,78.2,16.8,118
				c3.8,31.7-1.6,64.7-15.3,92.8c-6.2,12.6-13.9,24.3-18.2,37.8c-4.5,14.3-9.7,89.6,13.3,85.6c29.9-5.2,24.2-65.5,24.7-88.6
				c0.7-34.2,5.2-68.2,9.8-102c2.3-17.4,4.7-34.8,10.2-51.3C-67.1,156-61,144-56.7,131.1C-56,128.9-55.3,126.7-54.7,124.5z"/>
		</g>
		<g class="st1">
			<path class="st2" d="M-113.6-43.6c3.5-12.6,5.2-25.8,5-39c-0.1-4-0.3-8.2-2.2-11.7c-1.9-3.4-5.1-5.5-8.2-7.3
				c-10.7-5.9-22.7-8.8-34.6-8.4c-3.4,0.1-6.8,0.6-9.7,2.4c-4.9,3.2-7.1,9.9-8.2,16.1c-7,39.4,12,78.2,16.8,118
				c3.9,31.7-1.6,64.7-15.4,92.8c-6.1,12.6-13.9,24.3-18.2,37.8c-4.5,14.3-9.7,89.6,13.3,85.6c29.9-5.2,24.2-65.5,24.7-88.6
				c0.7-34.2,5.2-68.2,9.8-102c2.3-17.3,4.7-34.8,10.2-51.3c4.3-12.9,10.4-25,14.7-37.9C-114.8-39.2-114.2-41.3-113.6-43.6z"/>
		</g>
		<g class="st1">
			<path class="st2" d="M-166.4-186.1c3.5-12.6,5.2-25.8,5-39c-0.1-4-0.3-8.2-2.2-11.7c-1.9-3.4-5.1-5.5-8.2-7.3
				c-10.7-5.9-22.7-8.8-34.6-8.4c-3.4,0.1-6.8,0.6-9.7,2.4c-4.9,3.2-7.1,9.9-8.2,16.1c-7,39.4,12,78.2,16.8,118
				c3.9,31.7-1.6,64.7-15.4,92.8C-229-10.5-236.8,1.2-241,14.7c-4.5,14.3-9.7,89.6,13.3,85.6c29.9-5.2,24.2-65.5,24.7-88.6
				c0.7-34.2,5.2-68.2,9.8-102c2.3-17.3,4.7-34.8,10.2-51.3c4.3-12.9,10.4-24.9,14.7-37.9C-167.6-181.7-167-183.9-166.4-186.1z"/>
		</g>
		<g class="st3">
			<path class="st4" d="M-54.7,193.7c3.5-12.6,5.2-25.8,5-39c-0.1-4-0.3-8.2-2.2-11.7c-1.9-3.4-5.1-5.5-8.2-7.3
				c-10.7-5.9-22.7-8.8-34.6-8.4c-3.4,0.1-6.8,0.6-9.7,2.4c-4.9,3.2-7.1,9.9-8.2,16.1c-7,39.4,12,78.2,16.8,118
				c3.8,31.7-1.6,64.7-15.3,92.8c-6.2,12.6-13.9,24.3-18.2,37.8c-4.5,14.3-9.7,89.6,13.3,85.6c29.9-5.2,24.2-65.5,24.7-88.6
				c0.7-34.2,5.2-68.2,9.8-102c2.3-17.4,4.7-34.8,10.2-51.3c4.3-12.9,10.4-24.9,14.7-37.9C-56,198.1-55.3,195.9-54.7,193.7z"/>
		</g>
		<g class="st3">
			<path class="st4" d="M-113.6,25.6c3.5-12.6,5.2-25.8,5-39c-0.1-4-0.3-8.2-2.2-11.7c-1.9-3.4-5.1-5.5-8.2-7.3
				c-10.7-5.9-22.7-8.8-34.6-8.4c-3.4,0.1-6.8,0.5-9.7,2.4c-4.9,3.2-7.1,9.9-8.2,16.1c-7,39.4,12,78.2,16.8,118
				c3.9,31.7-1.6,64.7-15.4,92.8c-6.1,12.6-13.9,24.3-18.2,37.8c-4.5,14.3-9.7,89.6,13.3,85.6c29.9-5.2,24.2-65.5,24.7-88.6
				c0.7-34.2,5.2-68.2,9.8-102c2.3-17.3,4.7-34.8,10.2-51.3c4.3-12.9,10.4-25,14.7-37.9C-114.8,30.1-114.2,27.9-113.6,25.6z"/>
		</g>
		<g class="st3">
			<path class="st4" d="M-166.4-116.9c3.5-12.6,5.2-25.8,5-39c-0.1-4-0.3-8.2-2.2-11.7c-1.9-3.4-5.1-5.5-8.2-7.3
				c-10.7-5.9-22.7-8.8-34.6-8.4c-3.4,0.1-6.8,0.6-9.7,2.4c-4.9,3.2-7.1,9.9-8.2,16.1c-7,39.4,12,78.2,16.8,118
				c3.9,31.7-1.6,64.7-15.4,92.8c-6.1,12.7-13.9,24.5-18.1,38c-4.5,14.3-9.7,89.6,13.3,85.6c29.9-5.2,24.2-65.5,24.7-88.6
				c0.7-34.2,5.2-68.2,9.8-102c2.3-17.3,4.7-34.8,10.2-51.3c4.3-12.9,10.4-24.9,14.7-37.9C-167.6-112.4-167-114.6-166.4-116.9z"/>
		</g>
	</g>
	<g>
		<path class="st0" d="M104.4,385.7c3.5-12.6,5.2-25.8,5-39c-0.1-4-0.3-8.2-2.2-11.7c-1.9-3.4-5.1-5.5-8.2-7.3
			c-10.7-5.9-22.7-8.8-34.6-8.4c-3.4,0.1-6.8,0.5-9.7,2.4c-4.9,3.2-7.1,9.9-8.2,16.1c-7,39.4,12,78.2,16.8,118
			c3.8,31.7-1.6,64.7-15.3,92.8c-6.2,12.6-13.9,24.3-18.2,37.8c-4.5,14.3-9.7,89.6,13.3,85.6c29.9-5.2,24.2-65.5,24.7-88.6
			c0.7-34.2,5.2-68.2,9.8-102c2.3-17.4,4.7-34.8,10.2-51.3c4.3-12.9,10.4-25,14.7-37.9C103.2,390.1,103.8,387.9,104.4,385.7z"/>
	</g>
	<g>
		<path class="st0" d="M51.6,243.2c3.5-12.6,5.2-25.8,5-39c-0.1-4-0.3-8.2-2.2-11.7c-1.9-3.4-5.1-5.5-8.2-7.3
			c-10.7-5.9-22.7-8.8-34.6-8.4c-3.4,0.1-6.8,0.6-9.7,2.4c-4.9,3.2-7.1,9.9-8.2,16.1c-7,39.4,12,78.2,16.8,118
			C14.4,345,8.9,378-4.9,406.1C-11,418.8-18.8,430.5-23,444c-4.5,14.3-9.7,89.6,13.3,85.6C20.2,524.3,14.5,464,15,441
			c0.7-34.2,5.2-68.2,9.8-102c2.3-17.4,4.7-34.8,10.2-51.3c4.3-12.9,10.4-25,14.7-37.9C50.3,247.6,51,245.4,51.6,243.2z"/>
	</g>
	<g class="st1">
		<path class="st2" d="M75.5,399.6c3.5-12.6,5.2-25.8,5-39c-0.1-4-0.3-8.2-2.2-11.7c-1.9-3.4-5.1-5.5-8.2-7.3
			c-10.7-5.9-22.7-8.8-34.6-8.4c-3.4,0.1-6.8,0.5-9.7,2.4c-4.9,3.2-7.1,9.9-8.2,16.1c-7,39.4,12,78.2,16.8,118
			c3.8,31.7-1.6,64.7-15.4,92.8c-6.1,12.7-13.9,24.5-18.2,38C-3.7,614.7-8.8,690,14.2,686c29.9-5.2,24.2-65.5,24.7-88.6
			c0.7-34.2,5.2-68.2,9.8-102c2.3-17.4,4.7-34.8,10.2-51.3c4.3-12.9,10.4-25,14.7-37.9C74.2,404.1,74.9,401.9,75.5,399.6z"/>
	</g>
	<g class="st1">
		<path class="st2" d="M22.7,257.2c3.5-12.6,5.2-25.8,5-39c-0.1-4-0.3-8.2-2.2-11.7c-1.9-3.4-5.1-5.5-8.2-7.3
			c-10.7-5.9-22.7-8.8-34.6-8.4c-3.4,0.1-6.8,0.6-9.7,2.4c-4.9,3.2-7.1,9.9-8.2,16.1c-7,39.4,12,78.2,16.8,118
			c3.9,31.7-1.6,64.7-15.4,92.8c-6.2,12.6-13.9,24.3-18.2,37.8c-4.5,14.3-9.7,89.6,13.3,85.6c29.9-5.2,24.2-65.5,24.7-88.6
			c0.7-34.2,5.2-68.2,9.8-102c2.3-17.4,4.7-34.8,10.2-51.3c4.3-12.9,10.4-25,14.7-37.9C21.4,261.6,22.1,259.4,22.7,257.2z"/>
	</g>
	<g class="st3">
		<path class="st4" d="M75.5,468.9c3.5-12.6,5.2-25.8,5-39c-0.1-4-0.3-8.2-2.2-11.7c-1.9-3.4-5.1-5.5-8.2-7.3
			c-10.7-5.9-22.7-8.8-34.6-8.4c-3.4,0.1-6.8,0.5-9.7,2.4c-4.9,3.2-7.1,9.9-8.2,16.1c-7,39.4,12,78.2,16.8,118
			c3.8,31.7-1.6,64.7-15.4,92.8c-6.1,12.6-13.9,24.3-18.2,37.8c-4.5,14.3-9.7,89.6,13.3,85.6c29.9-5.2,24.2-65.5,24.7-88.6
			c0.7-34.2,5.2-68.2,9.8-102c2.3-17.3,4.7-34.8,10.2-51.3c4.3-12.9,10.4-25,14.7-37.9C74.2,473.3,74.9,471.1,75.5,468.9z"/>
	</g>
	<g class="st3">
		<path class="st4" d="M22.7,326.4c3.5-12.6,5.2-25.8,5-39c-0.1-4-0.3-8.2-2.2-11.7c-1.9-3.4-5.1-5.5-8.2-7.3
			c-10.7-5.9-22.7-8.8-34.6-8.4c-3.4,0.1-6.8,0.5-9.7,2.4c-4.9,3.2-7.1,9.9-8.2,16.1c-7,39.4,12,78.2,16.8,118
			c3.9,31.7-1.6,64.7-15.4,92.8c-6.2,12.6-13.9,24.3-18.2,37.8c-4.5,14.3-9.7,89.6,13.3,85.6c29.9-5.2,24.2-65.5,24.7-88.6
			c0.7-34.2,5.2-68.2,9.8-102c2.3-17.4,4.7-34.8,10.2-51.3c4.3-12.9,10.4-25,14.7-37.9C21.4,330.8,22.1,328.6,22.7,326.4z"/>
	</g>
	<g>
		<path class="st0" d="M-155.4,481.3c3.5-12.6,5.2-25.8,5-39c-0.1-4-0.3-8.2-2.2-11.7c-1.9-3.4-5.1-5.5-8.2-7.3
			c-10.7-5.9-22.7-8.8-34.6-8.4c-3.4,0.1-6.8,0.5-9.7,2.4c-4.9,3.2-7.1,9.9-8.2,16.1c-7,39.4,12,78.2,16.8,118
			c3.9,31.7-1.6,64.7-15.4,92.8c-6.1,12.6-13.9,24.3-18.2,37.8c-4.5,14.3-9.7,89.6,13.3,85.6c29.9-5.2,24.2-65.5,24.7-88.6
			c0.7-34.2,5.2-68.2,9.8-102c2.3-17.3,4.7-34.8,10.2-51.3c4.3-12.9,10.4-25,14.7-37.9C-156.6,485.7-156,483.5-155.4,481.3z"/>
	</g>
	<g>
		<path class="st0" d="M-208.2,338.8c3.5-12.6,5.2-25.8,5-39c-0.1-4-0.3-8.2-2.2-11.7c-1.9-3.4-5.1-5.5-8.2-7.3
			c-10.7-5.9-22.7-8.8-34.6-8.4c-3.4,0.1-6.8,0.5-9.7,2.4c-4.9,3.2-7.1,9.9-8.2,16.1c-7,39.4,12,78.2,16.8,118
			c3.9,31.7-1.6,64.7-15.4,92.8c-6.1,12.6-13.9,24.3-18.2,37.8c-4.5,14.3-9.7,89.6,13.3,85.6c29.9-5.2,24.2-65.5,24.7-88.6
			c0.7-34.2,5.2-68.2,9.8-102c2.3-17.4,4.7-34.8,10.2-51.3c4.3-12.9,10.4-25,14.7-37.9C-209.5,343.2-208.8,341-208.2,338.8z"/>
	</g>
	<g class="st1">
		<path class="st2" d="M-184.3,495.2c3.5-12.6,5.2-25.8,5-39c-0.1-4-0.3-8.2-2.2-11.7c-1.9-3.4-5.1-5.5-8.2-7.3
			c-10.7-5.9-22.7-8.8-34.6-8.4c-3.4,0.1-6.8,0.5-9.7,2.4c-4.9,3.2-7.1,9.9-8.2,16.1c-7,39.4,12,78.2,16.8,118
			c3.9,31.7-1.6,64.7-15.4,92.8c-6.1,12.6-13.9,24.3-18.2,37.8c-4.5,14.3-9.7,89.6,13.3,85.6c29.9-5.2,24.2-65.5,24.7-88.6
			c0.7-34.2,5.2-68.2,9.8-102c2.3-17.3,4.7-34.8,10.2-51.3c4.3-12.9,10.4-25,14.7-37.9C-185.6,499.7-184.9,497.4-184.3,495.2z"/>
	</g>
	<g class="st1">
		<path class="st2" d="M-237.1,352.7c3.5-12.6,5.2-25.8,5-39c-0.1-4-0.3-8.2-2.2-11.7c-1.9-3.4-5.1-5.5-8.2-7.3
			c-10.7-5.9-22.7-8.8-34.6-8.4c-3.4,0.1-6.8,0.5-9.7,2.4c-4.9,3.2-7.1,9.9-8.2,16.1c-7,39.4,12,78.2,16.8,118
			c3.9,31.7-1.6,64.7-15.4,92.8c-6.1,12.6-13.9,24.3-18.2,37.8c-4.5,14.3-9.7,89.6,13.3,85.6c29.9-5.2,24.2-65.5,24.7-88.6
			c0.7-34.2,5.2-68.2,9.8-102c2.3-17.4,4.7-34.8,10.2-51.3c4.3-12.9,10.4-25,14.7-37.9C-238.4,357.1-237.7,355-237.1,352.7z"/>
	</g>
	<g class="st3">
		<path class="st4" d="M-184.3,564.4c3.5-12.6,5.2-25.8,5-39c-0.1-4-0.3-8.2-2.2-11.7c-1.9-3.4-5.1-5.5-8.2-7.3
			c-10.7-5.9-22.7-8.8-34.6-8.4c-3.4,0.1-6.8,0.5-9.7,2.4c-4.9,3.2-7.1,9.9-8.2,16.1c-7,39.4,12,78.2,16.8,118
			c3.9,31.7-1.6,64.7-15.4,92.8c-6.1,12.6-13.9,24.3-18.2,37.8c-4.5,14.3-9.7,89.6,13.3,85.6c29.9-5.2,24.2-65.5,24.7-88.6
			c0.7-34.2,5.2-68.2,9.8-102c2.3-17.3,4.7-34.8,10.2-51.3c4.3-12.9,10.4-25,14.7-37.9C-185.6,568.9-184.9,566.7-184.3,564.4z"/>
	</g>
	<g class="st3">
		<path class="st4" d="M-237.1,422c3.5-12.6,5.2-25.8,5-39c-0.1-4-0.3-8.2-2.2-11.7c-1.9-3.4-5.1-5.5-8.2-7.3
			c-10.7-5.9-22.7-8.8-34.6-8.4c-3.4,0.1-6.8,0.5-9.7,2.4c-4.9,3.2-7.1,9.9-8.2,16.1c-7,39.4,12,78.2,16.8,118
			c3.9,31.7-1.6,64.7-15.4,92.8c-6.1,12.6-13.9,24.3-18.2,37.8c-4.5,14.3-9.7,89.6,13.3,85.6c29.9-5.2,24.2-65.5,24.7-88.6
			c0.7-34.2,5.2-68.2,9.8-102c2.3-17.4,4.7-34.8,10.2-51.3c4.3-12.9,10.4-25,14.7-37.9C-238.4,426.4-237.7,424.2-237.1,422z"/>
	</g>
</g>
<rect x="-0.2" y="268.7" class="st5" width="220.4" height="121.5"/>
<rect y="306.5" class="st5" width="220" height="55.3"/>
<line class="st6" x1="0" y1="302.3" x2="220" y2="302.3"/>
<line class="st7" x1="0" y1="293.3" x2="220" y2="293.3"/>
<line class="st8" x1="0" y1="284.3" x2="220" y2="284.3"/>
<line class="st9" x1="0" y1="275.3" x2="220" y2="275.3"/>
<line class="st10" x1="0" y1="299.8" x2="220" y2="299.8"/>
<line class="st11" x1="0" y1="291.5" x2="232" y2="291.5"/>
<line class="st12" x1="0" y1="283.3" x2="232" y2="283.3"/>
<line class="st13" x1="0" y1="274.8" x2="220.2" y2="274.8"/>
<line class="st6" x1="0" y1="366" x2="220" y2="366"/>
<line class="st7" x1="0" y1="375" x2="220" y2="375"/>
<line class="st8" x1="0" y1="384" x2="220" y2="384"/>
<line class="st9" x1="0" y1="393" x2="220" y2="393"/>
<line class="st10" x1="0" y1="368.5" x2="220" y2="368.5"/>
<line class="st11" x1="0" y1="376.8" x2="232" y2="376.8"/>
<line class="st12" x1="0" y1="385" x2="232" y2="385"/>
<line class="st13" x1="0" y1="393.5" x2="220.2" y2="393.5"/>
</svg>
