<?xml version="1.0" encoding="utf-8"?>
<!-- Generator: Adobe Illustrator 23.0.3, SVG Export Plug-In . SVG Version: 6.00 Build 0)  -->
<svg version="1.1" id="Layer_1" xmlns="http://www.w3.org/2000/svg" xmlns:xlink="http://www.w3.org/1999/xlink" x="0px" y="0px"
	 viewBox="0 0 220 390" style="enable-background:new 0 0 220 390;" xml:space="preserve">
<style type="text/css">
	.st0{opacity:0.75;}
	.st1{fill:#6ABD45;}
	.st2{opacity:0.6;}
	.st3{fill:#28441E;}
	.st4{opacity:0.9;}
	.st5{fill:#48C2C5;}
</style>
<g class="st0">
	<g>
		<g>
			<path class="st1" d="M521.55-639.5c3.48-12.6,5.19-25.81,5-38.99c-0.06-4.03-0.31-8.23-2.24-11.67c-1.86-3.37-5.07-5.54-8.24-7.3
				c-10.66-5.92-22.66-8.84-34.59-8.4c-3.36,0.14-6.81,0.55-9.67,2.44c-4.94,3.24-7.09,9.88-8.17,16.11
				c-6.96,39.37,12,78.23,16.81,117.98c3.85,31.7-1.62,64.67-15.35,92.82c-6.15,12.6-13.92,24.33-18.21,37.82
				c-4.51,14.28-9.67,89.58,13.33,85.56c29.87-5.23,24.24-65.53,24.68-88.62c0.68-34.21,5.22-68.18,9.79-102.01
				c2.33-17.35,4.69-34.83,10.16-51.28c4.29-12.91,10.41-24.95,14.7-37.86C520.27-635.06,520.95-637.26,521.55-639.5z"/>
		</g>
		<g>
			<path class="st1" d="M462.65-807.52c3.48-12.6,5.19-25.81,5-38.99c-0.06-4.03-0.31-8.23-2.24-11.67
				c-1.86-3.37-5.07-5.54-8.24-7.3c-10.66-5.92-22.66-8.84-34.59-8.4c-3.36,0.14-6.81,0.55-9.67,2.44
				c-4.94,3.24-7.09,9.88-8.17,16.11c-6.96,39.37,12,78.23,16.81,117.98c3.85,31.7-1.62,64.67-15.35,92.82
				c-6.15,12.6-13.92,24.33-18.21,37.82c-4.51,14.28-9.67,89.58,13.33,85.56c29.87-5.23,24.24-65.53,24.68-88.62
				c0.68-34.21,5.22-68.18,9.79-102.01c2.33-17.35,4.69-34.83,10.16-51.28c4.29-12.91,10.41-24.95,14.7-37.86
				C461.37-803.11,462.06-805.32,462.65-807.52z"/>
		</g>
		<g>
			<path class="st1" d="M409.84-950c3.48-12.6,5.19-25.81,5-38.99c-0.06-4.03-0.31-8.23-2.24-11.67c-1.86-3.37-5.07-5.54-8.24-7.3
				c-10.66-5.92-22.66-8.84-34.59-8.4c-3.36,0.14-6.81,0.55-9.67,2.44c-4.94,3.24-7.09,9.88-8.17,16.11
				c-6.96,39.37,12,78.23,16.81,117.98c3.85,31.7-1.62,64.67-15.35,92.82c-6.15,12.6-13.92,24.33-18.21,37.82
				c-4.51,14.28-9.67,89.58,13.33,85.56c29.87-5.23,24.24-65.53,24.68-88.62c0.68-34.21,5.22-68.18,9.79-102.01
				c2.33-17.35,4.69-34.83,10.16-51.28c4.29-12.91,10.41-24.95,14.7-37.86C408.57-945.59,409.22-947.8,409.84-950z"/>
		</g>
		<g class="st2">
			<path class="st3" d="M492.61-625.53c3.48-12.6,5.19-25.81,5-38.99c-0.06-4.03-0.31-8.23-2.24-11.67
				c-1.86-3.37-5.07-5.54-8.24-7.3c-10.66-5.92-22.66-8.84-34.59-8.4c-3.36,0.14-6.81,0.55-9.67,2.44
				c-4.94,3.24-7.09,9.88-8.17,16.11c-6.96,39.37,12,78.23,16.81,117.98c3.85,31.7-1.62,64.67-15.35,92.82
				c-6.15,12.6-13.92,24.33-18.21,37.82c-4.51,14.28-9.67,89.58,13.33,85.56c29.87-5.23,24.24-65.53,24.68-88.62
				c0.68-34.21,5.22-68.18,9.79-102.01c2.33-17.35,4.69-34.83,10.16-51.28c4.29-12.91,10.41-24.95,14.7-37.86
				C491.34-621.12,492.02-623.32,492.61-625.53z"/>
		</g>
		<g class="st2">
			<path class="st3" d="M433.74-793.58c3.48-12.6,5.19-25.81,5-38.99c-0.06-4.03-0.31-8.23-2.24-11.67
				c-1.86-3.37-5.07-5.54-8.24-7.3c-10.66-5.92-22.66-8.84-34.59-8.4c-3.36,0.14-6.81,0.55-9.67,2.44
				c-4.94,3.24-7.09,9.88-8.17,16.11c-6.96,39.37,12,78.23,16.81,117.98c3.85,31.7-1.62,64.67-15.35,92.82
				c-6.15,12.6-13.92,24.33-18.21,37.82c-4.51,14.28-9.67,89.58,13.33,85.56c29.87-5.23,24.24-65.53,24.68-88.62
				c0.68-34.21,5.22-68.18,9.79-102.01c2.33-17.35,4.69-34.83,10.16-51.28c4.29-12.91,10.41-24.95,14.7-37.86
				C432.44-789.14,433.12-791.34,433.74-793.58z"/>
		</g>
		<g class="st2">
			<path class="st3" d="M380.91-936.06c3.48-12.6,5.19-25.81,5-38.99c-0.06-4.03-0.31-8.23-2.24-11.67
				c-1.86-3.37-5.07-5.54-8.24-7.3c-10.66-5.92-22.66-8.84-34.59-8.4c-3.36,0.14-6.81,0.55-9.67,2.44
				c-4.94,3.24-7.09,9.88-8.17,16.11c-6.96,39.37,12,78.23,16.81,117.98c3.85,31.7-1.62,64.67-15.35,92.82
				c-6.15,12.6-13.92,24.33-18.21,37.82c-4.51,14.28-9.67,89.58,13.33,85.56c29.87-5.23,24.24-65.53,24.68-88.62
				c0.68-34.21,5.22-68.18,9.79-102.01c2.33-17.35,4.69-34.83,10.16-51.28c4.29-12.91,10.41-24.95,14.7-37.86
				C379.63-931.66,380.29-933.86,380.91-936.06z"/>
		</g>
		<g class="st4">
			<path class="st5" d="M492.61-556.32c3.48-12.6,5.19-25.81,5-38.99c-0.06-4.03-0.31-8.23-2.24-11.67
				c-1.86-3.37-5.07-5.54-8.24-7.3c-10.66-5.92-22.66-8.84-34.59-8.4c-3.36,0.14-6.81,0.55-9.67,2.44
				c-4.94,3.24-7.09,9.88-8.17,16.11c-6.96,39.37,12,78.23,16.81,117.98c3.85,31.7-1.62,64.67-15.35,92.82
				c-6.15,12.6-13.92,24.33-18.21,37.82c-4.51,14.28-9.67,89.58,13.33,85.56c29.87-5.23,24.24-65.53,24.68-88.62
				c0.68-34.21,5.22-68.18,9.79-102.01c2.33-17.35,4.69-34.83,10.16-51.28c4.29-12.91,10.41-24.95,14.7-37.86
				C491.34-551.91,492.02-554.11,492.61-556.32z"/>
		</g>
		<g class="st4">
			<path class="st5" d="M433.74-724.37c3.48-12.6,5.19-25.81,5-38.99c-0.06-4.03-0.31-8.23-2.24-11.67
				c-1.86-3.37-5.07-5.54-8.24-7.3c-10.66-5.92-22.66-8.84-34.59-8.4c-3.36,0.14-6.81,0.55-9.67,2.44
				c-4.94,3.24-7.09,9.88-8.17,16.11c-6.96,39.37,12,78.23,16.81,117.98c3.85,31.7-1.62,64.67-15.35,92.82
				c-6.15,12.6-13.92,24.33-18.21,37.82c-4.51,14.28-9.67,89.58,13.33,85.56c29.87-5.23,24.24-65.53,24.68-88.62
				c0.68-34.21,5.22-68.18,9.79-102.01c2.33-17.35,4.69-34.83,10.16-51.28c4.29-12.91,10.41-24.95,14.7-37.86
				C432.44-719.93,433.12-722.13,433.74-724.37z"/>
		</g>
		<g class="st4">
			<path class="st5" d="M380.91-866.85c3.48-12.6,5.19-25.81,5-38.99c-0.06-4.03-0.31-8.23-2.24-11.67
				c-1.86-3.37-5.07-5.54-8.24-7.3c-10.66-5.92-22.66-8.84-34.59-8.4c-3.36,0.14-6.81,0.55-9.67,2.44
				c-4.94,3.24-7.09,9.88-8.17,16.11c-6.96,39.37,12,78.23,16.81,117.98c3.85,31.7-1.62,64.67-15.35,92.82
				c-6.15,12.6-13.92,24.33-18.21,37.82c-4.51,14.28-9.67,89.58,13.33,85.56c29.87-5.23,24.24-65.53,24.68-88.62
				c0.68-34.21,5.22-68.18,9.79-102.01c2.33-17.35,4.69-34.83,10.16-51.28c4.29-12.91,10.41-24.95,14.7-37.86
				C379.63-862.41,380.29-864.61,380.91-866.85z"/>
		</g>
	</g>
	<g>
		<g>
			<path class="st1" d="M400.55-237.35c3.48-12.6,5.19-25.81,5-38.99c-0.06-4.03-0.31-8.23-2.24-11.67
				c-1.86-3.37-5.07-5.54-8.24-7.3c-10.66-5.92-22.66-8.84-34.59-8.4c-3.36,0.14-6.81,0.55-9.67,2.44
				c-4.94,3.24-7.09,9.88-8.17,16.11c-6.96,39.37,12,78.23,16.81,117.98c3.85,31.7-1.62,64.67-15.35,92.82
				c-6.15,12.6-13.92,24.33-18.21,37.82c-4.51,14.28-9.67,89.58,13.33,85.56c29.87-5.23,24.24-65.53,24.68-88.62
				c0.68-34.21,5.22-68.18,9.79-102.01c2.33-17.35,4.69-34.83,10.16-51.28c4.29-12.91,10.41-24.95,14.7-37.86
				C399.28-232.95,399.93-235.15,400.55-237.35z"/>
		</g>
		<g>
			<path class="st1" d="M341.65-405.4c3.48-12.6,5.19-25.81,5-38.99c-0.06-4.03-0.31-8.23-2.24-11.67c-1.86-3.37-5.07-5.54-8.24-7.3
				c-10.66-5.92-22.66-8.84-34.59-8.4c-3.36,0.14-6.81,0.55-9.67,2.44c-4.94,3.24-7.09,9.88-8.17,16.11
				c-6.96,39.37,12,78.23,16.81,117.98c3.85,31.7-1.62,64.67-15.35,92.82c-6.15,12.6-13.92,24.33-18.21,37.82
				c-4.51,14.28-9.67,89.58,13.33,85.56c29.87-5.23,24.24-65.53,24.68-88.62c0.68-34.21,5.22-68.18,9.79-102.01
				c2.33-17.35,4.69-34.83,10.16-51.28c4.29-12.91,10.41-24.95,14.7-37.86C340.38-400.96,341.06-403.17,341.65-405.4z"/>
		</g>
		<g>
			<path class="st1" d="M288.85-547.89c3.48-12.6,5.19-25.81,5-38.99c-0.06-4.03-0.31-8.23-2.24-11.67
				c-1.86-3.37-5.07-5.54-8.24-7.3c-10.66-5.92-22.66-8.84-34.59-8.4c-3.36,0.14-6.81,0.55-9.67,2.44
				c-4.94,3.24-7.09,9.88-8.17,16.11c-6.96,39.37,12,78.23,16.81,117.98c3.85,31.7-1.62,64.67-15.35,92.82
				c-6.15,12.6-13.92,24.33-18.21,37.82c-4.51,14.28-9.67,89.58,13.33,85.56c29.87-5.23,24.24-65.53,24.68-88.62
				c0.68-34.21,5.22-68.18,9.79-102.01c2.33-17.35,4.69-34.83,10.16-51.28c4.29-12.91,10.41-24.95,14.7-37.86
				C287.58-543.48,288.23-545.68,288.85-547.89z"/>
		</g>
		<g class="st2">
			<path class="st3" d="M371.62-223.41c3.48-12.6,5.19-25.81,5-38.99c-0.06-4.03-0.31-8.23-2.24-11.67
				c-1.86-3.37-5.07-5.54-8.24-7.3c-10.66-5.92-22.66-8.84-34.59-8.4c-3.36,0.14-6.81,0.55-9.67,2.44
				c-4.94,3.24-7.09,9.88-8.17,16.11c-6.96,39.37,12,78.23,16.81,117.98c3.85,31.7-1.62,64.67-15.35,92.82
				c-6.15,12.6-13.92,24.33-18.21,37.82c-4.51,14.28-9.67,89.58,13.33,85.56c29.87-5.23,24.24-65.53,24.68-88.62
				c0.68-34.21,5.22-68.18,9.79-102.01c2.33-17.35,4.69-34.83,10.16-51.28c4.29-12.91,10.41-24.95,14.7-37.86
				C370.34-218.97,371.03-221.18,371.62-223.41z"/>
		</g>
		<g class="st2">
			<path class="st3" d="M312.72-391.47c3.48-12.6,5.19-25.81,5-38.99c-0.06-4.03-0.31-8.23-2.24-11.67
				c-1.86-3.37-5.07-5.54-8.24-7.3c-10.66-5.92-22.66-8.84-34.59-8.4c-3.36,0.14-6.81,0.55-9.67,2.44
				c-4.94,3.24-7.09,9.88-8.17,16.11c-6.96,39.37,12,78.23,16.81,117.98c3.85,31.7-1.62,64.67-15.35,92.82
				c-6.15,12.6-13.92,24.33-18.21,37.82c-4.51,14.28-9.67,89.58,13.33,85.56c29.87-5.23,24.24-65.53,24.68-88.62
				c0.68-34.21,5.22-68.18,9.79-102.01c2.33-17.35,4.69-34.83,10.16-51.28c4.29-12.91,10.41-24.95,14.7-37.86
				C311.44-387.03,312.13-389.23,312.72-391.47z"/>
		</g>
		<g class="st2">
			<path class="st3" d="M259.91-533.95c3.48-12.6,5.19-25.81,5-38.99c-0.06-4.03-0.31-8.23-2.24-11.67
				c-1.86-3.37-5.07-5.54-8.24-7.3c-10.66-5.92-22.66-8.84-34.59-8.4c-3.36,0.14-6.81,0.55-9.67,2.44
				c-4.94,3.24-7.09,9.88-8.17,16.11c-6.96,39.37,12,78.23,16.81,117.98c3.85,31.7-1.62,64.67-15.35,92.82
				c-6.15,12.6-13.92,24.33-18.21,37.82c-4.51,14.28-9.67,89.58,13.33,85.56c29.87-5.23,24.24-65.53,24.68-88.62
				c0.68-34.21,5.22-68.18,9.79-102.01c2.33-17.35,4.69-34.83,10.16-51.28c4.29-12.91,10.41-24.95,14.7-37.86
				C258.64-529.51,259.29-531.71,259.91-533.95z"/>
		</g>
		<g class="st4">
			<path class="st5" d="M371.62-154.2c3.48-12.6,5.19-25.81,5-38.99c-0.06-4.03-0.31-8.23-2.24-11.67c-1.86-3.37-5.07-5.54-8.24-7.3
				c-10.66-5.92-22.66-8.84-34.59-8.4c-3.36,0.14-6.81,0.55-9.67,2.44c-4.94,3.24-7.09,9.88-8.17,16.11
				c-6.96,39.37,12,78.23,16.81,117.98c3.85,31.7-1.62,64.67-15.35,92.82c-6.15,12.6-13.92,24.33-18.21,37.82
				c-4.51,14.28-9.67,89.58,13.33,85.56c29.87-5.23,24.24-65.53,24.68-88.62c0.68-34.21,5.22-68.18,9.79-102.01
				c2.33-17.35,4.69-34.83,10.16-51.28c4.29-12.91,10.41-24.95,14.7-37.86C370.34-149.76,371.03-151.97,371.62-154.2z"/>
		</g>
		<g class="st4">
			<path class="st5" d="M312.72-322.25c3.48-12.6,5.19-25.81,5-38.99c-0.06-4.03-0.31-8.23-2.24-11.67
				c-1.86-3.37-5.07-5.54-8.24-7.3c-10.66-5.92-22.66-8.84-34.59-8.4c-3.36,0.14-6.81,0.55-9.67,2.44
				c-4.94,3.24-7.09,9.88-8.17,16.11c-6.96,39.37,12,78.23,16.81,117.98c3.85,31.7-1.62,64.67-15.35,92.82
				c-6.15,12.6-13.92,24.33-18.21,37.82c-4.51,14.28-9.67,89.58,13.33,85.56c29.87-5.23,24.24-65.53,24.68-88.62
				c0.68-34.21,5.22-68.18,9.79-102.01c2.33-17.35,4.69-34.83,10.16-51.28c4.29-12.91,10.41-24.95,14.7-37.86
				C311.44-317.82,312.13-320.02,312.72-322.25z"/>
		</g>
		<g class="st4">
			<path class="st5" d="M259.91-464.74c3.48-12.6,5.19-25.81,5-38.99c-0.06-4.03-0.31-8.23-2.24-11.67
				c-1.86-3.37-5.07-5.54-8.24-7.3c-10.66-5.92-22.66-8.84-34.59-8.4c-3.36,0.14-6.81,0.55-9.67,2.44
				c-4.94,3.24-7.09,9.88-8.17,16.11c-6.96,39.37,12,78.23,16.81,117.98c3.85,31.7-1.62,64.67-15.35,92.82
				c-6.15,12.6-13.92,24.33-18.21,37.82c-4.51,14.28-9.67,89.58,13.33,85.56c29.87-5.23,24.24-65.53,24.68-88.62
				c0.68-34.21,5.22-68.18,9.79-102.01c2.33-17.35,4.69-34.83,10.16-51.28c4.29-12.91,10.41-24.95,14.7-37.86
				C258.64-460.3,259.29-462.5,259.91-464.74z"/>
		</g>
	</g>
	<g>
		<g>
			<path class="st1" d="M288.45,200.8c3.48-12.6,5.19-25.81,5-38.99c-0.06-4.03-0.31-8.23-2.24-11.67c-1.86-3.37-5.07-5.54-8.24-7.3
				c-10.66-5.92-22.66-8.84-34.59-8.4c-3.36,0.14-6.81,0.55-9.67,2.44c-4.94,3.24-7.09,9.88-8.17,16.11
				c-6.96,39.37,12,78.23,16.81,117.98c3.85,31.7-1.62,64.67-15.35,92.82c-6.15,12.6-13.92,24.33-18.21,37.82
				c-4.51,14.28-9.67,89.58,13.33,85.56c29.87-5.23,24.24-65.53,24.68-88.62c0.68-34.21,5.22-68.18,9.79-102.01
				c2.33-17.35,4.69-34.83,10.16-51.28c4.29-12.91,10.41-24.95,14.7-37.86C287.17,205.24,287.86,203.03,288.45,200.8z"/>
		</g>
		<g>
			<path class="st1" d="M229.55,32.74c3.48-12.6,5.19-25.81,5-38.99c-0.06-4.03-0.31-8.23-2.24-11.67c-1.86-3.37-5.07-5.54-8.24-7.3
				c-10.66-5.92-22.66-8.84-34.59-8.4c-3.36,0.14-6.81,0.55-9.67,2.44c-4.94,3.24-7.09,9.88-8.17,16.11
				c-6.96,39.37,12,78.23,16.81,117.98c3.85,31.7-1.62,64.67-15.35,92.82c-6.15,12.6-13.92,24.33-18.21,37.82
				c-4.51,14.28-9.67,89.58,13.33,85.56c29.87-5.23,24.24-65.53,24.68-88.62c0.68-34.21,5.22-68.18,9.79-102.01
				c2.33-17.35,4.69-34.83,10.16-51.28c4.29-12.91,10.41-24.95,14.7-37.86C228.27,37.18,228.96,34.98,229.55,32.74z"/>
		</g>
		<g>
			<path class="st1" d="M176.74-109.74c3.48-12.6,5.19-25.81,5-38.99c-0.06-4.03-0.31-8.23-2.24-11.67
				c-1.86-3.37-5.07-5.54-8.24-7.3c-10.66-5.92-22.66-8.84-34.59-8.4c-3.36,0.14-6.81,0.55-9.67,2.44
				c-4.94,3.24-7.09,9.88-8.17,16.11c-6.96,39.37,12,78.23,16.81,117.98c3.85,31.7-1.62,64.67-15.35,92.82
				c-6.15,12.6-13.92,24.33-18.21,37.82c-4.51,14.28-9.67,89.58,13.33,85.56c29.87-5.23,24.24-65.53,24.68-88.62
				c0.68-34.21,5.22-68.18,9.79-102.01c2.33-17.35,4.69-34.83,10.16-51.28c4.29-12.91,10.41-24.95,14.7-37.86
				C175.47-105.3,176.12-107.5,176.74-109.74z"/>
		</g>
		<g class="st2">
			<path class="st3" d="M259.51,214.74c3.48-12.6,5.19-25.81,5-38.99c-0.06-4.03-0.31-8.23-2.24-11.67
				c-1.86-3.37-5.07-5.54-8.24-7.3c-10.66-5.92-22.66-8.84-34.59-8.4c-3.36,0.14-6.81,0.55-9.67,2.44
				c-4.94,3.24-7.09,9.88-8.17,16.11c-6.96,39.37,12,78.23,16.81,117.98c3.85,31.7-1.62,64.67-15.35,92.82
				c-6.15,12.6-13.92,24.33-18.21,37.82c-4.51,14.28-9.67,89.58,13.33,85.56c29.87-5.23,24.24-65.53,24.68-88.62
				c0.68-34.21,5.22-68.18,9.79-102.01c2.33-17.35,4.69-34.83,10.16-51.28c4.29-12.91,10.41-24.95,14.7-37.86
				C258.24,219.18,258.92,216.97,259.51,214.74z"/>
		</g>
		<g class="st2">
			<path class="st3" d="M200.64,46.72c3.48-12.6,5.19-25.81,5-38.99c-0.06-4.03-0.31-8.23-2.24-11.67c-1.86-3.37-5.07-5.54-8.24-7.3
				c-10.66-5.92-22.66-8.84-34.59-8.4c-3.36,0.14-6.81,0.55-9.67,2.44c-4.94,3.24-7.09,9.88-8.17,16.11
				c-6.96,39.37,12,78.23,16.81,117.98c3.85,31.7-1.62,64.67-15.35,92.82c-6.15,12.6-13.92,24.33-18.21,37.82
				c-4.51,14.28-9.67,89.58,13.33,85.56c29.87-5.23,24.24-65.53,24.68-88.62c0.68-34.21,5.22-68.18,9.79-102.01
				c2.33-17.35,4.69-34.83,10.16-51.28c4.29-12.91,10.41-24.95,14.7-37.86C199.34,51.12,200.02,48.92,200.64,46.72z"/>
		</g>
		<g class="st2">
			<path class="st3" d="M147.81-95.8c3.48-12.6,5.19-25.81,5-38.99c-0.06-4.03-0.31-8.23-2.24-11.67c-1.86-3.37-5.07-5.54-8.24-7.3
				c-10.66-5.92-22.66-8.84-34.59-8.4c-3.36,0.14-6.81,0.55-9.67,2.44c-4.94,3.24-7.09,9.88-8.17,16.11
				c-6.96,39.37,12,78.23,16.81,117.98c3.85,31.7-1.62,64.67-15.35,92.82c-6.15,12.6-13.92,24.33-18.21,37.82
				c-4.51,14.28-9.67,89.58,13.33,85.56c29.87-5.23,24.24-65.53,24.68-88.62c0.68-34.21,5.22-68.18,9.79-102.01
				c2.33-17.35,4.69-34.83,10.16-51.28c4.29-12.91,10.41-24.95,14.7-37.86C146.53-91.36,147.19-93.56,147.81-95.8z"/>
		</g>
		<g class="st4">
			<path class="st5" d="M259.51,283.98c3.48-12.6,5.19-25.81,5-38.99c-0.06-4.03-0.31-8.23-2.24-11.67
				c-1.86-3.37-5.07-5.54-8.24-7.3c-10.66-5.92-22.66-8.84-34.59-8.4c-3.36,0.14-6.81,0.55-9.67,2.44
				c-4.94,3.24-7.09,9.88-8.17,16.11c-6.96,39.37,12,78.23,16.81,117.98c3.85,31.7-1.62,64.67-15.35,92.82
				c-6.15,12.6-13.92,24.33-18.21,37.82c-4.51,14.28-9.67,89.58,13.33,85.56c29.87-5.23,24.24-65.53,24.68-88.62
				c0.68-34.21,5.22-68.18,9.79-102.01c2.33-17.35,4.69-34.83,10.16-51.28c4.29-12.91,10.41-24.95,14.7-37.86
				C258.24,288.39,258.92,286.18,259.51,283.98z"/>
		</g>
		<g class="st4">
			<path class="st5" d="M200.64,115.93c3.48-12.6,5.19-25.81,5-38.99c-0.06-4.03-0.31-8.23-2.24-11.67
				c-1.86-3.37-5.07-5.54-8.24-7.3c-10.66-5.92-22.66-8.84-34.59-8.4c-3.36,0.14-6.81,0.55-9.67,2.44
				c-4.94,3.24-7.09,9.88-8.17,16.11c-6.96,39.37,12,78.23,16.81,117.98c3.85,31.7-1.62,64.67-15.35,92.82
				c-6.15,12.6-13.92,24.33-18.21,37.82c-4.51,14.28-9.67,89.58,13.33,85.56c29.87-5.23,24.24-65.53,24.68-88.62
				c0.68-34.21,5.22-68.18,9.79-102.01c2.33-17.35,4.69-34.83,10.16-51.28c4.29-12.91,10.41-24.95,14.7-37.86
				C199.34,120.33,200.02,118.13,200.64,115.93z"/>
		</g>
		<g class="st4">
			<path class="st5" d="M147.81-26.55c3.48-12.6,5.19-25.81,5-38.99c-0.06-4.03-0.31-8.23-2.24-11.67c-1.86-3.37-5.07-5.54-8.24-7.3
				c-10.66-5.92-22.66-8.84-34.59-8.4c-3.36,0.14-6.81,0.55-9.67,2.44c-4.94,3.24-7.09,9.88-8.17,16.11
				c-6.96,39.37,12,78.23,16.81,117.98c3.85,31.7-1.62,64.67-15.35,92.82c-6.15,12.6-13.92,24.33-18.21,37.82
				c-4.51,14.28-9.67,89.58,13.33,85.56c29.87-5.23,24.24-65.53,24.68-88.62c0.68-34.21,5.22-68.18,9.79-102.01
				c2.33-17.35,4.69-34.83,10.16-51.28c4.29-12.91,10.41-24.95,14.7-37.86C146.53-22.15,147.19-24.35,147.81-26.55z"/>
		</g>
	</g>
	<g>
		<g>
			<path class="st1" d="M99.2-216.98c3.48-12.6,5.19-25.81,5-38.99c-0.06-4.03-0.31-8.23-2.24-11.67c-1.86-3.37-5.07-5.54-8.24-7.3
				c-10.66-5.92-22.66-8.84-34.59-8.4c-3.36,0.14-6.81,0.55-9.67,2.44c-4.94,3.24-7.09,9.88-8.17,16.11
				c-6.96,39.37,12,78.23,16.81,117.98c3.85,31.7-1.62,64.67-15.35,92.82c-6.15,12.6-13.92,24.33-18.21,37.82
				C20.04-1.88,14.88,73.42,37.88,69.4c29.87-5.23,24.24-65.53,24.68-88.62c0.68-34.21,5.22-68.18,9.79-102.01
				c2.33-17.35,4.69-34.83,10.16-51.28c4.29-12.91,10.41-24.95,14.7-37.86C97.93-212.57,98.61-214.77,99.2-216.98z"/>
		</g>
		<g>
			<path class="st1" d="M40.3-385.03c3.48-12.6,5.19-25.81,5-38.99c-0.06-4.03-0.31-8.23-2.24-11.67c-1.86-3.37-5.07-5.54-8.24-7.3
				c-10.66-5.92-22.66-8.84-34.59-8.4c-3.36,0.14-6.81,0.55-9.67,2.44c-4.94,3.24-7.09,9.88-8.17,16.11
				c-6.96,39.37,12,78.23,16.81,117.98c3.85,31.7-1.62,64.67-15.35,92.82c-6.15,12.6-13.92,24.33-18.21,37.82
				c-4.51,14.28-9.67,89.58,13.33,85.56c29.87-5.23,24.24-65.53,24.68-88.62c0.68-34.21,5.22-68.18,9.79-102.01
				c2.33-17.35,4.69-34.83,10.16-51.28c4.29-12.91,10.41-24.95,14.7-37.86C39.03-380.59,39.71-382.79,40.3-385.03z"/>
		</g>
		<g>
			<path class="st1" d="M-12.5-527.51c3.48-12.6,5.19-25.81,5-38.99c-0.06-4.03-0.31-8.23-2.24-11.67c-1.86-3.37-5.07-5.54-8.24-7.3
				c-10.66-5.92-22.66-8.84-34.59-8.4c-3.36,0.14-6.81,0.55-9.67,2.44c-4.94,3.24-7.09,9.88-8.17,16.11
				c-6.96,39.37,12,78.23,16.81,117.98c3.85,31.7-1.62,64.67-15.35,92.82c-6.15,12.6-13.92,24.33-18.21,37.82
				c-4.51,14.28-9.67,89.58,13.33,85.56c29.87-5.23,24.24-65.53,24.68-88.62c0.68-34.21,5.22-68.18,9.79-102.01
				c2.33-17.35,4.69-34.83,10.16-51.28c4.29-12.91,10.41-24.95,14.7-37.86C-13.78-523.11-13.12-525.31-12.5-527.51z"/>
		</g>
		<g class="st2">
			<path class="st3" d="M70.3-203.04c3.48-12.6,5.19-25.81,5-38.99c-0.06-4.03-0.31-8.23-2.24-11.67c-1.86-3.37-5.07-5.54-8.24-7.3
				c-10.66-5.92-22.66-8.84-34.59-8.4c-3.36,0.14-6.81,0.55-9.67,2.44c-4.94,3.24-7.09,9.88-8.17,16.11
				c-6.96,39.37,12,78.23,16.81,117.98c3.85,31.7-1.62,64.67-15.35,92.82C7.7-27.45-0.07-15.71-4.36-2.22
				c-4.51,14.28-9.67,89.58,13.33,85.56C38.84,78.1,33.22,17.81,33.65-5.28c0.68-34.21,5.22-68.18,9.79-102.01
				c2.33-17.35,4.69-34.83,10.16-51.28c4.29-12.91,10.41-24.95,14.7-37.86C68.99-198.6,69.67-200.8,70.3-203.04z"/>
		</g>
		<g class="st2">
			<path class="st3" d="M11.4-371.09c3.48-12.6,5.19-25.81,5-38.99c-0.06-4.03-0.31-8.23-2.24-11.67c-1.86-3.37-5.07-5.54-8.24-7.3
				c-10.66-5.92-22.66-8.84-34.59-8.4c-3.36,0.14-6.81,0.55-9.67,2.44c-4.94,3.24-7.09,9.88-8.17,16.11
				c-6.96,39.37,12,78.23,16.81,117.98c3.85,31.7-1.62,64.67-15.35,92.82c-6.15,12.6-13.92,24.33-18.21,37.82
				c-4.51,14.28-9.67,89.58,13.33,85.56c29.87-5.23,24.24-65.53,24.68-88.62c0.68-34.21,5.22-68.18,9.79-102.01
				c2.33-17.35,4.69-34.83,10.16-51.28c4.29-12.91,10.41-24.95,14.7-37.86C10.09-366.65,10.78-368.85,11.4-371.09z"/>
		</g>
		<g class="st2">
			<path class="st3" d="M-41.44-513.57c3.48-12.6,5.19-25.81,5-38.99c-0.06-4.03-0.31-8.23-2.24-11.67
				c-1.86-3.37-5.07-5.54-8.24-7.3c-10.66-5.92-22.66-8.84-34.59-8.4c-3.36,0.14-6.81,0.55-9.67,2.44
				c-4.94,3.24-7.09,9.88-8.17,16.11c-6.96,39.37,12,78.23,16.81,117.98c3.85,31.7-1.62,64.67-15.35,92.82
				c-6.15,12.6-13.92,24.33-18.21,37.82c-4.51,14.28-9.67,89.58,13.33,85.56c29.87-5.23,24.24-65.53,24.68-88.62
				c0.68-34.21,5.22-68.18,9.79-102.01c2.33-17.35,4.69-34.83,10.16-51.28c4.29-12.91,10.41-24.95,14.7-37.86
				C-42.71-509.13-42.03-511.34-41.44-513.57z"/>
		</g>
		<g class="st4">
			<path class="st5" d="M70.3-133.83c3.48-12.6,5.19-25.81,5-38.99c-0.06-4.03-0.31-8.23-2.24-11.67c-1.86-3.37-5.07-5.54-8.24-7.3
				c-10.66-5.92-22.66-8.84-34.59-8.4c-3.36,0.14-6.81,0.55-9.67,2.44c-4.94,3.24-7.09,9.88-8.17,16.11
				c-6.96,39.37,12,78.23,16.81,117.98c3.85,31.7-1.62,64.67-15.35,92.82C7.7,41.76-0.07,53.5-4.36,66.99
				c-4.51,14.28-9.67,89.58,13.33,85.56c29.87-5.23,24.24-65.53,24.68-88.62c0.68-34.21,5.22-68.18,9.79-102.01
				c2.33-17.35,4.69-34.83,10.16-51.28c4.29-12.91,10.41-24.95,14.7-37.86C68.99-129.39,69.67-131.59,70.3-133.83z"/>
		</g>
		<g class="st4">
			<path class="st5" d="M11.4-301.85c3.48-12.6,5.19-25.81,5-38.99c-0.06-4.03-0.31-8.23-2.24-11.67c-1.86-3.37-5.07-5.54-8.24-7.3
				c-10.66-5.92-22.66-8.84-34.59-8.4c-3.36,0.14-6.81,0.55-9.67,2.44c-4.94,3.24-7.09,9.88-8.17,16.11
				c-6.96,39.37,12,78.23,16.81,117.98c3.85,31.7-1.62,64.67-15.35,92.82c-6.15,12.6-13.92,24.33-18.21,37.82
				c-4.51,14.28-9.67,89.58,13.33,85.56C-20.05-20.7-25.68-81-25.24-104.09c0.68-34.21,5.22-68.18,9.79-102.01
				c2.33-17.35,4.69-34.83,10.16-51.28c4.29-12.91,10.41-24.95,14.7-37.86C10.09-297.44,10.78-299.64,11.4-301.85z"/>
		</g>
		<g class="st4">
			<path class="st5" d="M-41.44-444.36c3.48-12.6,5.19-25.81,5-38.99c-0.06-4.03-0.31-8.23-2.24-11.67
				c-1.86-3.37-5.07-5.54-8.24-7.3c-10.66-5.92-22.66-8.84-34.59-8.4c-3.36,0.14-6.81,0.55-9.67,2.44
				c-4.94,3.24-7.09,9.88-8.17,16.11c-6.96,39.37,12,78.23,16.81,117.98c3.85,31.7-1.62,64.67-15.35,92.82
				c-6.15,12.6-13.92,24.33-18.21,37.82c-4.51,14.28-9.67,89.58,13.33,85.56c29.87-5.23,24.24-65.53,24.68-88.62
				c0.68-34.21,5.22-68.18,9.79-102.01c2.33-17.35,4.69-34.83,10.16-51.28c4.29-12.91,10.41-24.95,14.7-37.86
				C-42.71-439.92-42.03-442.13-41.44-444.36z"/>
		</g>
	</g>
	<g>
		<g>
			<path class="st1" d="M205.28-645.9c3.48-12.6,5.19-25.81,5-38.99c-0.06-4.03-0.31-8.23-2.24-11.67c-1.86-3.37-5.07-5.54-8.24-7.3
				c-10.66-5.92-22.66-8.84-34.59-8.4c-3.36,0.14-6.81,0.55-9.67,2.44c-4.94,3.24-7.09,9.88-8.17,16.11
				c-6.96,39.37,12,78.23,16.81,117.98c3.85,31.7-1.62,64.67-15.35,92.82c-6.15,12.6-13.92,24.33-18.21,37.82
				c-4.51,14.28-9.67,89.58,13.33,85.56c29.87-5.23,24.24-65.53,24.68-88.62c0.68-34.21,5.22-68.18,9.79-102.01
				c2.33-17.35,4.69-34.83,10.16-51.28c4.29-12.91,10.41-24.95,14.7-37.86C204-641.5,204.65-643.7,205.28-645.9z"/>
		</g>
		<g>
			<path class="st1" d="M146.38-813.95c3.48-12.6,5.19-25.81,5-38.99c-0.06-4.03-0.31-8.23-2.24-11.67
				c-1.86-3.37-5.07-5.54-8.24-7.3c-10.66-5.92-22.66-8.84-34.59-8.4c-3.36,0.14-6.81,0.55-9.67,2.44
				c-4.94,3.24-7.09,9.88-8.17,16.11c-6.96,39.37,12,78.23,16.81,117.98c3.85,31.7-1.62,64.67-15.35,92.82
				c-6.15,12.6-13.92,24.33-18.21,37.82c-4.51,14.28-9.67,89.58,13.33,85.56c29.87-5.23,24.24-65.53,24.68-88.62
				c0.68-34.21,5.22-68.18,9.79-102.01c2.33-17.35,4.69-34.83,10.16-51.28c4.29-12.91,10.41-24.95,14.7-37.86
				C145.1-809.51,145.79-811.75,146.38-813.95z"/>
		</g>
		<g>
			<path class="st1" d="M93.57-956.44c3.48-12.6,5.19-25.81,5-38.99c-0.06-4.03-0.31-8.23-2.24-11.67c-1.86-3.37-5.07-5.54-8.24-7.3
				c-10.66-5.92-22.66-8.84-34.59-8.4c-3.36,0.14-6.81,0.55-9.67,2.44c-4.94,3.24-7.09,9.88-8.17,16.11
				c-6.96,39.37,12,78.23,16.81,117.98c3.85,31.7-1.62,64.67-15.35,92.82c-6.15,12.6-13.92,24.33-18.21,37.82
				c-4.51,14.28-9.67,89.58,13.33,85.56c29.87-5.23,24.24-65.53,24.68-88.62c0.68-34.21,5.22-68.18,9.79-102.01
				c2.33-17.35,4.69-34.83,10.16-51.28c4.29-12.91,10.41-24.95,14.7-37.86C92.3-952.03,92.95-954.23,93.57-956.44z"/>
		</g>
		<g class="st2">
			<path class="st3" d="M176.34-631.96c3.48-12.6,5.19-25.81,5-38.99c-0.06-4.03-0.31-8.23-2.24-11.67
				c-1.86-3.37-5.07-5.54-8.24-7.3c-10.66-5.92-22.66-8.84-34.59-8.4c-3.36,0.14-6.81,0.55-9.67,2.44
				c-4.94,3.24-7.09,9.88-8.17,16.11c-6.96,39.37,12,78.23,16.81,117.98c3.85,31.7-1.62,64.67-15.35,92.82
				c-6.15,12.6-13.92,24.33-18.21,37.82c-4.51,14.28-9.67,89.58,13.33,85.56c29.87-5.23,24.24-65.53,24.68-88.62
				c0.68-34.21,5.22-68.18,9.79-102.01c2.33-17.35,4.69-34.83,10.16-51.28c4.29-12.91,10.41-24.95,14.7-37.86
				C175.07-627.56,175.75-629.76,176.34-631.96z"/>
		</g>
		<g class="st2">
			<path class="st3" d="M117.44-800.02c3.48-12.6,5.19-25.81,5-38.99c-0.06-4.03-0.31-8.23-2.24-11.67
				c-1.86-3.37-5.07-5.54-8.24-7.3c-10.66-5.92-22.66-8.84-34.59-8.4c-3.36,0.14-6.81,0.55-9.67,2.44
				c-4.94,3.24-7.09,9.88-8.17,16.11c-6.96,39.37,12,78.23,16.81,117.98c3.85,31.7-1.62,64.67-15.35,92.82
				c-6.15,12.6-13.92,24.33-18.21,37.82c-4.51,14.28-9.67,89.58,13.33,85.56c29.87-5.23,24.24-65.53,24.68-88.62
				c0.68-34.21,5.22-68.18,9.79-102.01c2.33-17.35,4.69-34.83,10.16-51.28c4.29-12.91,10.41-24.95,14.7-37.86
				C116.17-795.58,116.85-797.78,117.44-800.02z"/>
		</g>
		<g class="st2">
			<path class="st3" d="M64.64-942.5c3.48-12.6,5.19-25.81,5-38.99c-0.06-4.03-0.31-8.23-2.24-11.67c-1.86-3.37-5.07-5.54-8.24-7.3
				c-10.66-5.92-22.66-8.84-34.59-8.4c-3.36,0.14-6.81,0.55-9.67,2.44c-4.94,3.24-7.09,9.88-8.17,16.11
				c-6.96,39.37,12,78.23,16.81,117.98c3.85,31.7-1.62,64.67-15.35,92.82c-6.15,12.6-13.92,24.33-18.21,37.82
				c-4.51,14.28-9.67,89.58,13.33,85.56c29.87-5.23,24.24-65.53,24.68-88.62c0.68-34.21,5.22-68.18,9.79-102.01
				c2.33-17.35,4.69-34.83,10.16-51.28c4.29-12.91,10.41-24.95,14.7-37.86C63.36-938.06,64.02-940.26,64.64-942.5z"/>
		</g>
		<g class="st4">
			<path class="st5" d="M176.34-562.75c3.48-12.6,5.19-25.81,5-38.99c-0.06-4.03-0.31-8.23-2.24-11.67
				c-1.86-3.37-5.07-5.54-8.24-7.3c-10.66-5.92-22.66-8.84-34.59-8.4c-3.36,0.14-6.81,0.55-9.67,2.44
				c-4.94,3.24-7.09,9.88-8.17,16.11c-6.96,39.37,12,78.23,16.81,117.98c3.85,31.7-1.62,64.67-15.35,92.82
				c-6.15,12.6-13.92,24.33-18.21,37.82c-4.51,14.28-9.67,89.58,13.33,85.56c29.87-5.23,24.24-65.53,24.68-88.62
				c0.68-34.21,5.22-68.18,9.79-102.01c2.33-17.35,4.69-34.83,10.16-51.28c4.29-12.91,10.41-24.95,14.7-37.86
				C175.07-558.31,175.75-560.52,176.34-562.75z"/>
		</g>
		<g class="st4">
			<path class="st5" d="M117.44-730.81c3.48-12.6,5.19-25.81,5-38.99c-0.06-4.03-0.31-8.23-2.24-11.67
				c-1.86-3.37-5.07-5.54-8.24-7.3c-10.66-5.92-22.66-8.84-34.59-8.4c-3.36,0.14-6.81,0.55-9.67,2.44
				c-4.94,3.24-7.09,9.88-8.17,16.11c-6.96,39.37,12,78.23,16.81,117.98c3.85,31.7-1.62,64.67-15.35,92.82
				c-6.15,12.6-13.92,24.33-18.21,37.82c-4.51,14.28-9.67,89.58,13.33,85.56c29.87-5.23,24.24-65.53,24.68-88.62
				c0.68-34.21,5.22-68.18,9.79-102.01c2.33-17.35,4.69-34.83,10.16-51.28c4.29-12.91,10.41-24.95,14.7-37.86
				C116.17-726.37,116.85-728.57,117.44-730.81z"/>
		</g>
		<g class="st4">
			<path class="st5" d="M64.64-873.29c3.48-12.6,5.19-25.81,5-38.99c-0.06-4.03-0.31-8.23-2.24-11.67c-1.86-3.37-5.07-5.54-8.24-7.3
				c-10.66-5.92-22.66-8.84-34.59-8.4c-3.36,0.14-6.81,0.55-9.67,2.44c-4.94,3.24-7.09,9.88-8.17,16.11
				c-6.96,39.37,12,78.19,16.81,117.98c3.85,31.7-1.62,64.67-15.35,92.82c-6.15,12.6-13.92,24.33-18.21,37.82
				c-4.51,14.28-9.67,89.58,13.33,85.56c29.87-5.23,24.24-65.53,24.68-88.62c0.68-34.21,5.22-68.18,9.79-102.01
				c2.33-17.35,4.69-34.83,10.16-51.28c4.29-12.91,10.41-24.95,14.7-37.86C63.36-868.85,64.02-871.05,64.64-873.29z"/>
		</g>
	</g>
	<g>
		<path class="st1" d="M330.25-1025.65c3.48-12.6,5.19-25.81,5-38.99c-0.06-4.03-0.31-8.23-2.24-11.67
			c-1.86-3.37-5.07-5.54-8.24-7.3c-10.66-5.92-22.66-8.84-34.59-8.4c-3.36,0.14-6.81,0.55-9.67,2.44
			c-4.94,3.24-7.09,9.88-8.17,16.11c-6.96,39.37,12,78.23,16.81,117.98c3.85,31.7-1.62,64.67-15.35,92.82
			c-6.15,12.6-13.92,24.33-18.21,37.82c-4.51,14.28-9.67,89.58,13.33,85.56c29.87-5.23,24.24-65.53,24.68-88.62
			c0.68-34.21,5.22-68.18,9.79-102.01c2.33-17.35,4.69-34.83,10.16-51.28c4.29-12.91,10.41-24.95,14.7-37.86
			C328.94-1021.24,329.63-1023.44,330.25-1025.65z"/>
	</g>
	<g>
		<path class="st1" d="M271.35-1193.7c3.48-12.6,5.19-25.81,5-38.99c-0.06-4.03-0.31-8.23-2.24-11.67c-1.86-3.37-5.07-5.54-8.24-7.3
			c-10.66-5.92-22.66-8.84-34.59-8.4c-3.36,0.14-6.81,0.55-9.67,2.44c-4.94,3.24-7.09,9.88-8.17,16.11
			c-6.96,39.37,12,78.23,16.81,117.98c3.85,31.7-1.62,64.67-15.35,92.82c-6.15,12.6-13.92,24.33-18.21,37.82
			c-4.51,14.28-9.67,89.58,13.33,85.56c29.87-5.23,24.24-65.53,24.68-88.62c0.68-34.21,5.22-68.18,9.79-102.01
			c2.33-17.35,4.69-34.83,10.16-51.28c4.29-12.91,10.41-24.95,14.7-37.86C270.08-1189.29,270.73-1191.5,271.35-1193.7z"/>
	</g>
	<g class="st2">
		<path class="st3" d="M301.31-1011.71c3.48-12.6,5.19-25.81,5-38.99c-0.06-4.03-0.31-8.23-2.24-11.67
			c-1.86-3.37-5.07-5.54-8.24-7.3c-10.66-5.92-22.66-8.84-34.59-8.4c-3.36,0.14-6.81,0.55-9.67,2.44
			c-4.94,3.24-7.09,9.88-8.17,16.11c-6.96,39.37,12,78.23,16.81,117.98c3.85,31.7-1.62,64.67-15.35,92.82
			c-6.15,12.6-13.92,24.33-18.21,37.82c-4.51,14.28-9.67,89.58,13.33,85.56c29.87-5.23,24.24-65.53,24.68-88.62
			c0.68-34.21,5.22-68.18,9.79-102.01c2.33-17.35,4.69-34.83,10.16-51.28c4.29-12.91,10.41-24.95,14.7-37.86
			C300.04-1007.3,300.69-1009.5,301.31-1011.71z"/>
	</g>
	<g class="st2">
		<path class="st3" d="M242.42-1179.76c3.48-12.6,5.19-25.81,5-38.99c-0.06-4.03-0.31-8.23-2.24-11.67
			c-1.86-3.37-5.07-5.54-8.24-7.3c-10.66-5.92-22.66-8.84-34.59-8.4c-3.36,0.14-6.81,0.55-9.67,2.44
			c-4.94,3.24-7.09,9.88-8.17,16.11c-6.96,39.37,12,78.23,16.81,117.98c3.85,31.7-1.62,64.67-15.35,92.82
			c-6.15,12.6-13.92,24.33-18.21,37.82c-4.51,14.28-9.67,89.58,13.33,85.56c29.87-5.23,24.24-65.53,24.68-88.62
			c0.68-34.21,5.22-68.18,9.79-102.01c2.33-17.35,4.69-34.83,10.16-51.28c4.29-12.91,10.41-24.95,14.7-37.86
			C241.14-1175.32,241.79-1177.52,242.42-1179.76z"/>
	</g>
	<g class="st4">
		<path class="st5" d="M301.31-942.5c3.48-12.6,5.19-25.81,5-38.99c-0.06-4.03-0.31-8.23-2.24-11.67c-1.86-3.37-5.07-5.54-8.24-7.3
			c-10.66-5.92-22.66-8.84-34.59-8.4c-3.36,0.14-6.81,0.55-9.67,2.44c-4.94,3.24-7.09,9.88-8.17,16.11
			c-6.96,39.37,12,78.23,16.81,117.98c3.85,31.7-1.62,64.67-15.35,92.82c-6.15,12.6-13.92,24.33-18.21,37.82
			c-4.51,14.28-9.67,89.58,13.33,85.56c29.87-5.23,24.24-65.53,24.68-88.62c0.68-34.21,5.22-68.18,9.79-102.01
			c2.33-17.35,4.69-34.83,10.16-51.28c4.29-12.91,10.41-24.95,14.7-37.86C300.04-938.06,300.69-940.26,301.31-942.5z"/>
	</g>
	<g class="st4">
		<path class="st5" d="M242.42-1110.55c3.48-12.6,5.19-25.81,5-38.99c-0.06-4.03-0.31-8.23-2.24-11.67
			c-1.86-3.37-5.07-5.54-8.24-7.3c-10.66-5.92-22.66-8.84-34.59-8.4c-3.36,0.14-6.81,0.55-9.67,2.44
			c-4.94,3.24-7.09,9.88-8.17,16.11c-6.96,39.37,12,78.23,16.81,117.98c3.85,31.7-1.62,64.67-15.35,92.82
			c-6.15,12.6-13.92,24.33-18.21,37.82c-4.51,14.28-9.67,89.58,13.33,85.56c29.87-5.23,24.24-65.53,24.68-88.62
			c0.68-34.21,5.22-68.18,9.79-102.01c2.33-17.35,4.69-34.83,10.16-51.28c4.29-12.91,10.41-24.95,14.7-37.86
			C241.14-1106.11,241.79-1108.31,242.42-1110.55z"/>
	</g>
	<g>
		<path class="st1" d="M532.98,41.52c3.48-12.6,5.19-25.81,5-38.99c-0.06-4.03-0.31-8.23-2.24-11.67c-1.86-3.37-5.07-5.54-8.24-7.3
			c-10.66-5.92-22.66-8.84-34.59-8.4c-3.36,0.14-6.81,0.55-9.67,2.44c-4.94,3.24-7.09,9.88-8.17,16.11
			c-6.96,39.37,12,78.23,16.81,117.98c3.85,31.7-1.62,64.67-15.35,92.82c-6.15,12.6-13.92,24.33-18.21,37.82
			c-4.51,14.28-9.67,89.58,13.33,85.56c29.87-5.23,24.24-65.53,24.68-88.62c0.68-34.21,5.22-68.18,9.79-102.01
			c2.33-17.35,4.69-34.83,10.16-51.28c4.29-12.91,10.41-24.95,14.7-37.86C531.71,45.96,532.36,43.76,532.98,41.52z"/>
	</g>
	<g>
		<path class="st1" d="M480.18-100.96c3.48-12.6,5.19-25.81,5-38.99c-0.06-4.03-0.31-8.23-2.24-11.67c-1.86-3.37-5.07-5.54-8.24-7.3
			c-10.66-5.92-22.66-8.84-34.59-8.4c-3.36,0.14-6.81,0.55-9.67,2.44c-4.94,3.24-7.09,9.88-8.17,16.11
			c-6.96,39.37,12,78.23,16.81,117.98c3.85,31.7-1.62,64.67-15.35,92.82c-6.15,12.6-13.92,24.33-18.21,37.82
			c-4.51,14.28-9.67,89.58,13.33,85.56c29.87-5.23,24.24-65.53,24.68-88.62c0.68-34.21,5.22-68.18,9.79-102.01
			c2.33-17.35,4.69-34.83,10.16-51.28c4.29-12.91,10.41-24.95,14.7-37.86C478.87-96.52,479.56-98.72,480.18-100.96z"/>
	</g>
	<g class="st2">
		<path class="st3" d="M504.05,55.49c3.48-12.6,5.19-25.81,5-38.99c-0.06-4.03-0.31-8.23-2.24-11.67c-1.86-3.37-5.07-5.54-8.24-7.3
			c-10.66-5.92-22.66-8.84-34.59-8.4c-3.36,0.14-6.81,0.55-9.67,2.44c-4.94,3.24-7.09,9.88-8.17,16.11
			c-6.96,39.37,12,78.23,16.81,117.98c3.85,31.7-1.62,64.67-15.35,92.82c-6.15,12.6-13.92,24.33-18.21,37.82
			c-4.51,14.28-9.67,89.58,13.33,85.56c29.87-5.23,24.24-65.53,24.68-88.62c0.68-34.21,5.22-68.18,9.79-102.01
			c2.33-17.35,4.69-34.83,10.16-51.28c4.29-12.91,10.41-24.95,14.7-37.86C502.77,59.9,503.43,57.7,504.05,55.49z"/>
	</g>
	<g class="st2">
		<path class="st3" d="M451.24-87.02c3.48-12.6,5.19-25.81,5-38.99c-0.06-4.03-0.31-8.23-2.24-11.67c-1.86-3.37-5.07-5.54-8.24-7.3
			c-10.66-5.92-22.66-8.84-34.59-8.4c-3.36,0.14-6.81,0.55-9.67,2.44c-4.94,3.24-7.09,9.88-8.17,16.11
			c-6.96,39.37,12,78.23,16.81,117.98c3.85,31.7-1.62,64.67-15.35,92.82c-6.15,12.6-13.92,24.33-18.21,37.82
			c-4.51,14.28-9.67,89.58,13.33,85.56c29.87-5.23,24.24-65.53,24.68-88.62c0.68-34.21,5.22-68.18,9.79-102.01
			c2.33-17.35,4.69-34.83,10.16-51.28c4.29-12.91,10.41-24.95,14.7-37.86C449.97-82.58,450.62-84.79,451.24-87.02z"/>
	</g>
	<g class="st4">
		<path class="st5" d="M504.05,124.7c3.48-12.6,5.19-25.81,5-38.99c-0.06-4.03-0.31-8.23-2.24-11.67c-1.86-3.37-5.07-5.54-8.24-7.3
			c-10.66-5.92-22.66-8.84-34.59-8.4c-3.36,0.14-6.81,0.55-9.67,2.44c-4.94,3.24-7.09,9.88-8.17,16.11
			c-6.96,39.37,12,78.23,16.81,117.98c3.85,31.7-1.62,64.67-15.35,92.82c-6.15,12.6-13.92,24.33-18.21,37.82
			c-4.51,14.28-9.67,89.58,13.33,85.56c29.87-5.23,24.24-65.53,24.68-88.62c0.68-34.21,5.22-68.18,9.79-102.01
			c2.33-17.35,4.69-34.83,10.16-51.28c4.29-12.91,10.41-24.95,14.7-37.86C502.77,129.11,503.43,126.91,504.05,124.7z"/>
	</g>
	<g class="st4">
		<path class="st5" d="M451.24-17.78c3.48-12.6,5.19-25.81,5-38.99c-0.06-4.03-0.31-8.23-2.24-11.67c-1.86-3.37-5.07-5.54-8.24-7.3
			c-10.66-5.92-22.66-8.84-34.59-8.4c-3.36,0.14-6.81,0.55-9.67,2.44c-4.94,3.24-7.09,9.88-8.17,16.11
			c-6.96,39.37,12,78.23,16.81,117.98c3.85,31.7-1.62,64.67-15.35,92.82c-6.15,12.6-13.92,24.33-18.21,37.82
			c-4.51,14.28-9.67,89.58,13.33,85.56c29.87-5.23,24.24-65.53,24.68-88.62c0.68-34.21,5.22-68.18,9.79-102.01
			c2.33-17.35,4.69-34.83,10.16-51.28c4.29-12.91,10.41-24.95,14.7-37.86C449.97-13.37,450.62-15.58,451.24-17.78z"/>
	</g>
	<g>
		<path class="st1" d="M417.8,487.69c3.48-12.6,5.19-25.81,5-38.99c-0.06-4.03-0.31-8.23-2.24-11.67c-1.86-3.37-5.07-5.54-8.24-7.3
			c-10.66-5.92-22.66-8.84-34.59-8.4c-3.36,0.14-6.81,0.55-9.67,2.44c-4.94,3.24-7.09,9.88-8.17,16.11
			c-6.96,39.37,12,78.23,16.81,117.98c3.85,31.7-1.62,64.67-15.35,92.82c-6.15,12.6-13.92,24.33-18.21,37.82
			c-4.51,14.28-9.67,89.58,13.33,85.56c29.87-5.23,24.24-65.53,24.68-88.62c0.68-34.21,5.22-68.18,9.79-102.01
			c2.33-17.35,4.69-34.83,10.16-51.28c4.29-12.91,10.41-24.95,14.7-37.86C416.5,492.13,417.18,489.92,417.8,487.69z"/>
	</g>
	<g>
		<path class="st1" d="M364.96,345.21c3.48-12.6,5.19-25.81,5-38.99c-0.06-4.03-0.31-8.23-2.24-11.67c-1.86-3.37-5.07-5.54-8.24-7.3
			c-10.66-5.92-22.66-8.84-34.59-8.4c-3.36,0.14-6.81,0.55-9.67,2.44c-4.94,3.24-7.09,9.88-8.17,16.11
			c-6.96,39.37,12,78.23,16.81,117.98c3.85,31.7-1.62,64.67-15.35,92.82c-6.15,12.6-13.92,24.33-18.21,37.82
			c-4.51,14.28-9.67,89.58,13.33,85.56c29.87-5.23,24.24-65.53,24.68-88.62c0.68-34.21,5.22-68.18,9.79-102.01
			c2.33-17.35,4.69-34.83,10.16-51.28c4.29-12.91,10.41-24.95,14.7-37.86C363.69,349.65,364.37,347.44,364.96,345.21z"/>
	</g>
	<g class="st2">
		<path class="st3" d="M388.87,501.66c3.48-12.6,5.19-25.81,5-38.99c-0.06-4.03-0.31-8.23-2.24-11.67c-1.86-3.37-5.07-5.54-8.24-7.3
			c-10.66-5.92-22.66-8.84-34.59-8.4c-3.36,0.14-6.81,0.55-9.67,2.44c-4.94,3.24-7.09,9.88-8.17,16.11
			c-6.96,39.37,12,78.23,16.81,117.98c3.85,31.7-1.62,64.67-15.35,92.82c-6.15,12.6-13.92,24.33-18.21,37.82
			c-4.51,14.28-9.67,89.58,13.33,85.56c29.87-5.23,24.24-65.53,24.68-88.62c0.68-34.21,5.22-68.18,9.79-102.01
			c2.33-17.35,4.69-34.83,10.16-51.28c4.29-12.91,10.41-24.95,14.7-37.86C387.59,506.07,388.24,503.86,388.87,501.66z"/>
	</g>
	<g class="st2">
		<path class="st3" d="M336.03,359.18c3.48-12.6,5.19-25.81,5-38.99c-0.06-4.03-0.31-8.23-2.24-11.67c-1.86-3.37-5.07-5.54-8.24-7.3
			c-10.66-5.92-22.66-8.84-34.59-8.4c-3.36,0.14-6.81,0.55-9.67,2.44c-4.94,3.24-7.09,9.88-8.17,16.11
			c-6.96,39.37,12,78.23,16.81,117.98c3.85,31.7-1.62,64.67-15.35,92.82c-6.15,12.6-13.92,24.33-18.21,37.82
			c-4.51,14.28-9.67,89.58,13.33,85.56c29.87-5.23,24.24-65.53,24.68-88.62c0.68-34.21,5.22-68.18,9.79-102.01
			c2.33-17.35,4.69-34.83,10.16-51.28c4.29-12.91,10.41-24.95,14.7-37.86C334.75,363.58,335.44,361.38,336.03,359.18z"/>
	</g>
	<g class="st4">
		<path class="st5" d="M388.87,570.87c3.48-12.6,5.19-25.81,5-38.99c-0.06-4.03-0.31-8.23-2.24-11.67c-1.86-3.37-5.07-5.54-8.24-7.3
			c-10.66-5.92-22.66-8.84-34.59-8.4c-3.36,0.14-6.81,0.55-9.67,2.44c-4.94,3.24-7.09,9.88-8.17,16.11
			c-6.96,39.37,12,78.23,16.81,117.98c3.85,31.7-1.62,64.67-15.35,92.82c-6.15,12.6-13.92,24.33-18.21,37.82
			c-4.51,14.28-9.67,89.58,13.33,85.56c29.87-5.23,24.24-65.53,24.68-88.62c0.68-34.21,5.22-68.18,9.79-102.01
			c2.33-17.35,4.69-34.83,10.16-51.28c4.29-12.91,10.41-24.95,14.7-37.86C387.59,575.28,388.24,573.07,388.87,570.87z"/>
	</g>
	<g class="st4">
		<path class="st5" d="M336.03,428.39c3.48-12.6,5.19-25.81,5-38.99c-0.06-4.03-0.31-8.23-2.24-11.67c-1.86-3.37-5.07-5.54-8.24-7.3
			c-10.66-5.92-22.66-8.84-34.59-8.4c-3.36,0.14-6.81,0.55-9.67,2.44c-4.94,3.24-7.09,9.88-8.17,16.11
			c-6.96,39.37,12,78.23,16.81,117.98c3.85,31.7-1.62,64.67-15.35,92.82c-6.15,12.6-13.92,24.33-18.21,37.82
			c-4.51,14.28-9.67,89.58,13.33,85.56c29.87-5.23,24.24-65.53,24.68-88.62c0.68-34.21,5.22-68.18,9.79-102.01
			c2.33-17.35,4.69-34.83,10.16-51.28c4.29-12.91,10.41-24.95,14.7-37.86C334.75,432.79,335.44,430.59,336.03,428.39z"/>
	</g>
	<g>
		<path class="st1" d="M16.03-1066.08c3.48-12.6,5.19-25.81,5-38.99c-0.06-4.03-0.31-8.23-2.24-11.67c-1.86-3.37-5.07-5.54-8.24-7.3
			c-10.66-5.92-22.66-8.84-34.59-8.4c-3.36,0.14-6.81,0.55-9.67,2.44c-4.94,3.24-7.09,9.88-8.17,16.11
			c-6.96,39.37,12,78.19,16.81,117.98c3.85,31.7-1.62,64.67-15.35,92.82c-6.15,12.6-13.92,24.33-18.21,37.82
			c-4.51,14.28-9.67,89.58,13.33,85.56c29.87-5.23,24.24-65.53,24.68-88.62c0.68-34.21,5.22-68.18,9.79-102.01
			c2.33-17.35,4.69-34.83,10.16-51.28c4.29-12.91,10.41-24.95,14.7-37.86C14.76-1061.64,15.44-1063.85,16.03-1066.08z"/>
	</g>
	<g class="st2">
		<path class="st3" d="M-12.91-1052.11c3.48-12.6,5.19-25.81,5-38.99c-0.06-4.03-0.31-8.23-2.24-11.67
			c-1.86-3.37-5.07-5.54-8.24-7.3c-10.66-5.92-22.66-8.84-34.59-8.4c-3.36,0.14-6.81,0.55-9.67,2.44
			c-4.94,3.24-7.09,9.88-8.17,16.11c-6.96,39.37,12,78.23,16.81,117.98c3.85,31.7-1.62,64.67-15.35,92.82
			c-6.15,12.6-13.92,24.33-18.21,37.82c-4.51,14.25-9.63,89.55,13.36,85.52c29.87-5.23,24.24-65.53,24.68-88.62
			c0.68-34.21,5.22-68.18,9.79-102.01c2.33-17.35,4.69-34.83,10.16-51.28c4.29-12.91,10.41-24.95,14.7-37.86
			C-14.18-1047.71-13.5-1049.91-12.91-1052.11z"/>
	</g>
	<g class="st4">
		<path class="st5" d="M-12.91-982.9c3.48-12.6,5.19-25.81,5-38.99c-0.06-4.03-0.31-8.23-2.24-11.67c-1.86-3.37-5.07-5.54-8.24-7.3
			c-10.66-5.92-22.66-8.84-34.59-8.4c-3.36,0.14-6.81,0.55-9.67,2.44c-4.94,3.24-7.09,9.88-8.17,16.11
			c-6.96,39.34,12,78.19,16.81,117.94c3.85,31.7-1.62,64.67-15.35,92.82c-6.15,12.6-13.92,24.33-18.21,37.82
			c-4.51,14.28-9.67,89.58,13.33,85.56c29.87-5.23,24.24-65.53,24.68-88.62c0.68-34.21,5.22-68.18,9.79-102.01
			c2.33-17.35,4.69-34.83,10.16-51.28c4.29-12.91,10.41-24.95,14.7-37.86C-14.18-978.5-13.5-980.7-12.91-982.9z"/>
	</g>
	<g>
		<path class="st1" d="M-96.08-645.9c3.48-12.6,5.19-25.81,5-38.99c-0.06-4.03-0.31-8.23-2.24-11.67c-1.86-3.37-5.07-5.54-8.24-7.3
			c-10.66-5.92-22.66-8.84-34.59-8.4c-3.36,0.14-6.81,0.55-9.67,2.44c-4.94,3.24-7.09,9.88-8.17,16.11
			c-6.96,39.37,12,78.23,16.81,117.98c3.85,31.7-1.62,64.67-15.35,92.82c-6.15,12.6-13.92,24.33-18.21,37.82
			c-4.51,14.28-9.67,89.58,13.33,85.56c29.87-5.23,24.24-65.53,24.68-88.62c0.68-34.21,5.22-68.18,9.79-102.01
			c2.33-17.35,4.69-34.83,10.16-51.28c4.29-12.91,10.41-24.95,14.7-37.86C-97.35-641.5-96.67-643.7-96.08-645.9z"/>
	</g>
	<g>
		<path class="st1" d="M-154.97-813.95c3.48-12.6,5.19-25.81,5.03-38.99c-0.06-4.03-0.31-8.23-2.24-11.67
			c-1.86-3.37-5.07-5.54-8.24-7.3c-10.66-5.95-22.66-8.88-34.59-8.43c-3.36,0.14-6.81,0.55-9.67,2.44
			c-4.97,3.2-7.09,9.88-8.21,16.11c-6.93,39.41,12,78.23,16.81,118.01c3.85,31.7-1.62,64.67-15.35,92.82
			c-6.15,12.6-13.92,24.33-18.21,37.82c-4.51,14.25-9.63,89.55,13.36,85.56c29.87-5.23,24.24-65.53,24.68-88.62
			c0.68-34.21,5.22-68.18,9.79-102.01c2.33-17.35,4.69-34.83,10.16-51.28c4.29-12.91,10.41-24.95,14.7-37.86
			C-156.25-809.51-155.56-811.75-154.97-813.95z"/>
	</g>
	<g class="st2">
		<path class="st3" d="M-124.98-631.96c3.48-12.6,5.19-25.81,5-38.99c-0.06-4.03-0.31-8.23-2.24-11.67
			c-1.86-3.37-5.07-5.54-8.24-7.3c-10.66-5.92-22.66-8.84-34.59-8.4c-3.36,0.14-6.81,0.55-9.67,2.44
			c-4.94,3.24-7.09,9.88-8.17,16.11c-6.96,39.37,12,78.23,16.81,117.98c3.85,31.7-1.62,64.67-15.35,92.82
			c-6.15,12.6-13.92,24.33-18.21,37.82c-4.51,14.28-9.67,89.58,13.33,85.56c29.87-5.23,24.24-65.53,24.68-88.62
			c0.68-34.21,5.22-68.18,9.79-102.01c2.33-17.35,4.69-34.83,10.16-51.28c4.29-12.91,10.41-24.95,14.7-37.86
			C-126.29-627.56-125.6-629.76-124.98-631.96z"/>
	</g>
	<g class="st2">
		<path class="st3" d="M-183.88-800.02c3.48-12.6,5.19-25.81,5-38.99c-0.06-4.03-0.31-8.23-2.24-11.67
			c-1.86-3.37-5.07-5.54-8.24-7.3c-10.66-5.95-22.66-8.84-34.59-8.4c-3.33,0.1-6.78,0.55-9.67,2.41c-4.94,3.24-7.09,9.88-8.17,16.11
			c-6.96,39.41,11.97,78.23,16.78,118.01c3.85,31.7-1.62,64.67-15.35,92.82c-6.15,12.6-13.92,24.33-18.21,37.82
			c-4.51,14.28-9.67,89.58,13.33,85.56c29.87-5.23,24.24-65.53,24.68-88.62c0.68-34.21,5.22-68.18,9.79-102.01
			c2.33-17.35,4.69-34.83,10.16-51.28c4.29-12.91,10.41-24.95,14.7-37.86C-185.18-795.58-184.5-797.78-183.88-800.02z"/>
	</g>
	<g class="st4">
		<path class="st5" d="M-124.98-562.75c3.48-12.6,5.19-25.81,5-38.99c-0.06-4.03-0.31-8.23-2.24-11.67
			c-1.86-3.37-5.07-5.54-8.24-7.3c-10.66-5.92-22.66-8.84-34.59-8.4c-3.36,0.14-6.81,0.55-9.67,2.44
			c-4.94,3.24-7.09,9.88-8.17,16.11c-6.96,39.37,12,78.23,16.81,117.98c3.85,31.7-1.62,64.67-15.35,92.82
			c-6.15,12.6-13.92,24.33-18.21,37.82c-4.51,14.28-9.67,89.58,13.33,85.56c29.87-5.23,24.24-65.53,24.68-88.62
			c0.68-34.21,5.22-68.18,9.79-102.01c2.33-17.35,4.69-34.83,10.16-51.28c4.29-12.91,10.41-24.95,14.7-37.86
			C-126.29-558.31-125.6-560.52-124.98-562.75z"/>
	</g>
	<g class="st4">
		<path class="st5" d="M-183.88-730.81c3.48-12.6,5.19-25.81,5-38.99c-0.06-4.03-0.31-8.23-2.24-11.67
			c-1.86-3.37-5.07-5.54-8.24-7.3c-10.66-5.92-22.66-8.84-34.59-8.4c-3.36,0.14-6.81,0.55-9.67,2.44
			c-4.94,3.24-7.09,9.88-8.17,16.11c-6.96,39.37,11.97,78.19,16.78,117.98c3.85,31.7-1.62,64.67-15.35,92.82
			c-6.15,12.6-13.92,24.33-18.21,37.82c-4.51,14.28-9.67,89.58,13.33,85.56c29.87-5.23,24.24-65.53,24.68-88.62
			c0.68-34.21,5.22-68.18,9.79-102.01c2.33-17.35,4.69-34.83,10.16-51.28c4.29-12.91,10.41-24.95,14.7-37.86
			C-185.18-726.37-184.5-728.57-183.88-730.81z"/>
	</g>
	<g>
		<g>
			<path class="st1" d="M-25.74,110.52c3.48-12.6,5.19-25.81,5-38.99c-0.06-4.03-0.31-8.23-2.24-11.67
				c-1.86-3.37-5.07-5.54-8.24-7.3c-10.66-5.92-22.66-8.84-34.59-8.4c-3.36,0.14-6.81,0.55-9.67,2.44
				c-4.94,3.24-7.09,9.88-8.17,16.11c-6.96,39.37,12,78.23,16.81,117.98c3.85,31.7-1.62,64.67-15.35,92.82
				c-6.15,12.6-13.92,24.33-18.21,37.82c-4.51,14.28-9.67,89.58,13.33,85.56c29.87-5.23,24.24-65.53,24.68-88.62
				c0.68-34.21,5.22-68.18,9.79-102.01c2.33-17.35,4.69-34.83,10.16-51.28c4.29-12.91,10.41-24.95,14.7-37.86
				C-27.02,114.93-26.36,112.73-25.74,110.52z"/>
		</g>
		<g>
			<path class="st1" d="M-84.64-57.53c3.48-12.6,5.19-25.81,5-38.99c-0.06-4.03-0.31-8.23-2.24-11.67c-1.86-3.37-5.07-5.54-8.24-7.3
				c-10.66-5.92-22.66-8.84-34.59-8.4c-3.36,0.14-6.81,0.55-9.67,2.44c-4.94,3.24-7.09,9.88-8.17,16.11
				c-6.96,39.37,12,78.23,16.81,117.98c3.85,31.7-1.62,64.67-15.35,92.82c-6.15,12.6-13.92,24.33-18.21,37.82
				c-4.51,14.28-9.67,89.58,13.33,85.56c29.87-5.23,24.24-65.53,24.68-88.62c0.68-34.21,5.22-68.18,9.79-102.01
				c2.33-17.35,4.69-34.83,10.16-51.28c4.29-12.91,10.41-24.95,14.7-37.86C-85.91-53.12-85.26-55.33-84.64-57.53z"/>
		</g>
		<g>
			<path class="st1" d="M-137.44-200.01c3.48-12.6,5.19-25.81,5-38.99c-0.06-4.03-0.31-8.23-2.24-11.67
				c-1.86-3.37-5.07-5.54-8.24-7.3c-10.66-5.92-22.66-8.84-34.59-8.4c-3.36,0.14-6.81,0.55-9.67,2.44
				c-4.94,3.24-7.09,9.88-8.17,16.11c-6.96,39.37,12,78.23,16.81,117.98c3.85,31.7-1.62,64.67-15.35,92.82
				c-6.15,12.6-13.92,24.33-18.21,37.82c-4.51,14.28-9.67,89.58,13.33,85.56c29.87-5.23,24.24-65.53,24.68-88.62
				c0.68-34.21,5.22-68.18,9.79-102.01c2.33-17.35,4.69-34.83,10.16-51.28c4.29-12.91,10.41-24.95,14.7-37.86
				C-138.75-195.6-138.06-197.81-137.44-200.01z"/>
		</g>
		<g class="st2">
			<path class="st3" d="M-54.68,124.46c3.48-12.6,5.19-25.81,5-38.99c-0.06-4.03-0.31-8.23-2.24-11.67
				c-1.86-3.37-5.07-5.54-8.24-7.3c-10.66-5.92-22.66-8.84-34.59-8.4c-3.36,0.14-6.81,0.55-9.67,2.44
				c-4.94,3.24-7.09,9.88-8.17,16.11c-6.96,39.37,12,78.23,16.81,117.98c3.85,31.7-1.62,64.67-15.35,92.82
				c-6.15,12.6-13.92,24.33-18.21,37.82c-4.51,14.28-9.67,89.58,13.33,85.56c29.87-5.23,24.24-65.53,24.68-88.62
				c0.68-34.21,5.22-68.18,9.79-102.01c2.33-17.35,4.69-34.83,10.16-51.28c4.29-12.91,10.41-24.95,14.7-37.86
				C-55.95,128.87-55.3,126.67-54.68,124.46z"/>
		</g>
		<g class="st2">
			<path class="st3" d="M-113.57-43.59c3.48-12.6,5.19-25.81,5-38.99c-0.06-4.03-0.31-8.23-2.24-11.67
				c-1.86-3.37-5.07-5.54-8.24-7.3c-10.66-5.92-22.66-8.84-34.59-8.4c-3.36,0.14-6.81,0.55-9.67,2.44
				c-4.94,3.24-7.09,9.88-8.17,16.11c-6.96,39.37,12,78.23,16.81,117.98c3.85,31.7-1.62,64.67-15.35,92.82
				c-6.15,12.6-13.92,24.33-18.21,37.82c-4.51,14.28-9.67,89.58,13.33,85.56c29.87-5.23,24.24-65.53,24.68-88.62
				c0.68-34.21,5.22-68.18,9.79-102.01c2.33-17.35,4.69-34.83,10.16-51.28c4.29-12.91,10.41-24.95,14.7-37.86
				C-114.85-39.15-114.2-41.35-113.57-43.59z"/>
		</g>
		<g class="st2">
			<path class="st3" d="M-166.38-186.07c3.48-12.6,5.19-25.81,5-38.99c-0.06-4.03-0.31-8.23-2.24-11.67
				c-1.86-3.37-5.07-5.54-8.24-7.3c-10.66-5.92-22.66-8.84-34.59-8.4c-3.36,0.14-6.81,0.55-9.67,2.44
				c-4.94,3.24-7.09,9.88-8.17,16.11c-6.96,39.37,12,78.23,16.81,117.98c3.85,31.7-1.62,64.67-15.35,92.82
				c-6.15,12.6-13.92,24.33-18.21,37.82c-4.51,14.28-9.67,89.58,13.33,85.56c29.87-5.23,24.24-65.53,24.68-88.62
				c0.68-34.21,5.22-68.18,9.79-102.01c2.33-17.35,4.69-34.83,10.16-51.28c4.29-12.91,10.41-24.95,14.7-37.86
				C-167.65-181.67-167-183.87-166.38-186.07z"/>
		</g>
		<g class="st4">
			<path class="st5" d="M-54.68,193.67c3.48-12.6,5.19-25.81,5-38.99c-0.06-4.03-0.31-8.23-2.24-11.67
				c-1.86-3.37-5.07-5.54-8.24-7.3c-10.66-5.92-22.66-8.84-34.59-8.4c-3.36,0.14-6.81,0.55-9.67,2.44
				c-4.94,3.24-7.09,9.88-8.17,16.11c-6.96,39.37,12,78.23,16.81,117.98c3.85,31.7-1.62,64.67-15.35,92.82
				c-6.15,12.6-13.92,24.33-18.21,37.82c-4.51,14.28-9.67,89.58,13.33,85.56c29.87-5.23,24.24-65.53,24.68-88.62
				c0.68-34.21,5.22-68.18,9.79-102.01c2.33-17.35,4.69-34.83,10.16-51.28c4.29-12.91,10.41-24.95,14.7-37.86
				C-55.95,198.11-55.3,195.91-54.68,193.67z"/>
		</g>
		<g class="st4">
			<path class="st5" d="M-113.57,25.62c3.48-12.6,5.19-25.81,5-38.99c-0.06-4.03-0.31-8.23-2.24-11.67
				c-1.86-3.37-5.07-5.54-8.24-7.3c-10.66-5.92-22.66-8.84-34.59-8.4c-3.36,0.14-6.81,0.55-9.67,2.44
				c-4.94,3.24-7.09,9.88-8.17,16.11c-6.96,39.37,12,78.23,16.81,117.98c3.85,31.7-1.62,64.67-15.35,92.82
				c-6.15,12.6-13.92,24.33-18.21,37.82c-4.51,14.28-9.67,89.58,13.33,85.56c29.87-5.23,24.24-65.53,24.68-88.62
				c0.68-34.21,5.22-68.18,9.79-102.01c2.33-17.35,4.69-34.83,10.16-51.28c4.29-12.91,10.41-24.95,14.7-37.86
				C-114.85,30.06-114.2,27.86-113.57,25.62z"/>
		</g>
		<g class="st4">
			<path class="st5" d="M-166.38-116.86c3.48-12.6,5.19-25.81,5-38.99c-0.06-4.03-0.31-8.23-2.24-11.67
				c-1.86-3.37-5.07-5.54-8.24-7.3c-10.66-5.92-22.66-8.84-34.59-8.4c-3.36,0.14-6.81,0.55-9.67,2.44
				c-4.94,3.24-7.09,9.88-8.17,16.11c-6.96,39.37,12,78.23,16.81,117.98c3.85,31.7-1.62,64.67-15.35,92.82
				c-6.15,12.6-13.92,24.33-18.21,37.82c-4.51,14.28-9.67,89.58,13.33,85.56c29.87-5.23,24.24-65.53,24.68-88.62
				c0.68-34.21,5.22-68.18,9.79-102.01c2.33-17.35,4.69-34.83,10.16-51.28c4.29-12.91,10.41-24.95,14.7-37.86
				C-167.65-112.42-167-114.62-166.38-116.86z"/>
		</g>
	</g>
	<g>
		<path class="st1" d="M104.42,385.71c3.48-12.6,5.19-25.81,5-38.99c-0.06-4.03-0.31-8.23-2.24-11.67c-1.86-3.37-5.07-5.54-8.24-7.3
			c-10.66-5.92-22.66-8.84-34.59-8.4c-3.36,0.14-6.81,0.55-9.67,2.44c-4.94,3.24-7.09,9.88-8.17,16.11
			c-6.96,39.37,12,78.23,16.81,117.98c3.85,31.7-1.62,64.67-15.35,92.82c-6.15,12.6-13.92,24.33-18.21,37.82
			c-4.51,14.28-9.67,89.58,13.33,85.56c29.87-5.23,24.24-65.53,24.68-88.62c0.68-34.21,5.22-68.18,9.79-102.01
			c2.33-17.35,4.69-34.83,10.16-51.28c4.29-12.91,10.41-24.95,14.7-37.86C103.15,390.12,103.8,387.92,104.42,385.71z"/>
	</g>
	<g>
		<path class="st1" d="M51.62,243.2c3.48-12.6,5.19-25.81,5-38.99c-0.06-4.03-0.31-8.23-2.24-11.67c-1.86-3.37-5.07-5.54-8.24-7.3
			c-10.66-5.92-22.66-8.84-34.59-8.4c-3.36,0.14-6.81,0.55-9.67,2.44c-4.94,3.24-7.09,9.88-8.17,16.11
			c-6.96,39.37,12,78.23,16.81,117.98c3.85,31.7-1.62,64.67-15.35,92.82c-6.15,12.6-13.92,24.33-18.21,37.82
			c-4.51,14.28-9.67,89.58,13.33,85.56c29.87-5.23,24.24-65.53,24.68-88.62c0.68-34.21,5.22-68.18,9.79-102.01
			c2.33-17.35,4.69-34.83,10.16-51.28c4.29-12.91,10.41-24.95,14.7-37.86C50.31,247.64,50.99,245.43,51.62,243.2z"/>
	</g>
	<g class="st2">
		<path class="st3" d="M75.49,399.65c3.48-12.6,5.19-25.81,5-38.99c-0.06-4.03-0.31-8.23-2.24-11.67c-1.86-3.37-5.07-5.54-8.24-7.3
			c-10.66-5.92-22.66-8.84-34.59-8.4c-3.36,0.14-6.81,0.55-9.67,2.44c-4.94,3.24-7.09,9.88-8.17,16.11
			c-6.96,39.37,12,78.23,16.81,117.98c3.85,31.7-1.62,64.67-15.35,92.82c-6.15,12.6-13.92,24.33-18.21,37.82
			c-4.51,14.28-9.67,89.58,13.33,85.56c29.87-5.23,24.24-65.53,24.68-88.62c0.68-34.21,5.22-68.18,9.79-102.01
			c2.33-17.35,4.69-34.83,10.16-51.28c4.29-12.91,10.41-24.95,14.7-37.86C74.21,404.06,74.86,401.85,75.49,399.65z"/>
	</g>
	<g class="st2">
		<path class="st3" d="M22.68,257.17c3.48-12.6,5.19-25.81,5-38.99c-0.06-4.03-0.31-8.23-2.24-11.67c-1.86-3.37-5.07-5.54-8.24-7.3
			c-10.66-5.92-22.66-8.84-34.59-8.4c-3.36,0.14-6.81,0.55-9.67,2.44c-4.94,3.24-7.09,9.88-8.17,16.11
			c-6.96,39.37,12,78.23,16.81,117.98c3.85,31.7-1.62,64.67-15.35,92.82c-6.15,12.6-13.92,24.33-18.21,37.82
			c-4.51,14.28-9.67,89.58,13.33,85.56c29.87-5.23,24.24-65.53,24.68-88.62c0.68-34.21,5.22-68.18,9.79-102.01
			c2.33-17.35,4.69-34.83,10.16-51.28c4.29-12.91,10.41-24.95,14.7-37.86C21.41,261.58,22.06,259.37,22.68,257.17z"/>
	</g>
	<g class="st4">
		<path class="st5" d="M75.49,468.86c3.48-12.6,5.19-25.81,5-38.99c-0.06-4.03-0.31-8.23-2.24-11.67c-1.86-3.37-5.07-5.54-8.24-7.3
			c-10.66-5.92-22.66-8.84-34.59-8.4c-3.36,0.14-6.81,0.55-9.67,2.44c-4.94,3.24-7.09,9.88-8.17,16.11
			c-6.96,39.37,12,78.23,16.81,117.98c3.85,31.7-1.62,64.67-15.35,92.82c-6.15,12.6-13.92,24.33-18.21,37.82
			c-4.51,14.28-9.67,89.58,13.33,85.56c29.87-5.23,24.24-65.53,24.68-88.62c0.68-34.21,5.22-68.18,9.79-102.01
			c2.33-17.35,4.69-34.83,10.16-51.28c4.29-12.91,10.41-24.95,14.7-37.86C74.21,473.3,74.86,471.1,75.49,468.86z"/>
	</g>
	<g class="st4">
		<path class="st5" d="M22.68,326.38c3.48-12.6,5.19-25.81,5-38.99c-0.06-4.03-0.31-8.23-2.24-11.67c-1.86-3.37-5.07-5.54-8.24-7.3
			c-10.66-5.92-22.66-8.84-34.59-8.4c-3.36,0.14-6.81,0.55-9.67,2.44c-4.94,3.24-7.09,9.88-8.17,16.11
			c-6.96,39.37,12,78.23,16.81,117.98c3.85,31.7-1.62,64.67-15.35,92.82c-6.15,12.6-13.92,24.33-18.21,37.82
			c-4.51,14.28-9.67,89.58,13.33,85.56c29.87-5.23,24.24-65.53,24.68-88.62c0.68-34.21,5.22-68.18,9.79-102.01
			c2.33-17.35,4.69-34.83,10.16-51.28c4.29-12.91,10.41-24.95,14.7-37.86C21.41,330.79,22.06,328.58,22.68,326.38z"/>
	</g>
	<g>
		<path class="st1" d="M-155.35,481.29c3.48-12.6,5.19-25.81,5-38.99c-0.06-4.03-0.31-8.23-2.24-11.67
			c-1.86-3.37-5.07-5.54-8.24-7.3c-10.66-5.92-22.66-8.84-34.59-8.4c-3.36,0.14-6.81,0.55-9.67,2.44
			c-4.94,3.24-7.09,9.88-8.17,16.11c-6.96,39.37,12,78.23,16.81,117.98c3.85,31.7-1.62,64.67-15.35,92.82
			c-6.15,12.6-13.92,24.33-18.21,37.82c-4.51,14.28-9.67,89.58,13.33,85.56c29.87-5.23,24.24-65.53,24.68-88.62
			c0.68-34.21,5.22-68.18,9.79-102.01c2.33-17.35,4.69-34.83,10.16-51.28c4.29-12.91,10.41-24.95,14.7-37.86
			C-156.62,485.69-155.97,483.49-155.35,481.29z"/>
	</g>
	<g>
		<path class="st1" d="M-208.18,338.77c3.48-12.6,5.19-25.81,5-38.99c-0.06-4.03-0.31-8.23-2.24-11.67
			c-1.86-3.37-5.07-5.54-8.24-7.3c-10.66-5.92-22.66-8.84-34.59-8.4c-3.36,0.14-6.81,0.55-9.67,2.44
			c-4.94,3.24-7.09,9.88-8.17,16.11c-6.96,39.37,12,78.23,16.81,117.98c3.85,31.7-1.62,64.67-15.35,92.82
			c-6.15,12.6-13.92,24.33-18.21,37.82c-4.51,14.28-9.67,89.58,13.33,85.56c29.87-5.23,24.24-65.53,24.68-88.62
			c0.68-34.21,5.22-68.18,9.79-102.01c2.33-17.35,4.69-34.83,10.16-51.28c4.29-12.91,10.41-24.95,14.7-37.86
			C-209.46,343.21-208.77,341.01-208.18,338.77z"/>
	</g>
	<g class="st2">
		<path class="st3" d="M-184.28,495.22c3.48-12.6,5.19-25.81,5-38.99c-0.06-4.03-0.31-8.23-2.24-11.67
			c-1.86-3.37-5.07-5.54-8.24-7.3c-10.66-5.92-22.66-8.84-34.59-8.4c-3.36,0.14-6.81,0.55-9.67,2.44
			c-4.94,3.24-7.09,9.88-8.17,16.11c-6.96,39.37,12,78.23,16.81,117.98c3.85,31.7-1.62,64.67-15.35,92.82
			c-6.15,12.6-13.92,24.33-18.21,37.82c-4.51,14.28-9.67,89.58,13.33,85.56c29.87-5.23,24.24-65.53,24.68-88.62
			c0.68-34.21,5.22-68.18,9.79-102.01c2.33-17.35,4.69-34.83,10.16-51.28c4.29-12.91,10.41-24.95,14.7-37.86
			C-185.55,499.66-184.9,497.43-184.28,495.22z"/>
	</g>
	<g class="st2">
		<path class="st3" d="M-237.09,352.74c3.48-12.6,5.19-25.81,5-38.99c-0.06-4.03-0.31-8.23-2.24-11.67
			c-1.86-3.37-5.07-5.54-8.24-7.3c-10.66-5.92-22.66-8.84-34.59-8.4c-3.36,0.14-6.81,0.55-9.67,2.44
			c-4.94,3.24-7.09,9.88-8.17,16.11c-6.96,39.37,12,78.23,16.81,117.98c3.85,31.7-1.62,64.67-15.35,92.82
			c-6.15,12.6-13.92,24.33-18.21,37.82c-4.51,14.28-9.67,89.58,13.33,85.56c29.87-5.23,24.24-65.53,24.68-88.62
			c0.68-34.21,5.22-68.18,9.79-102.01c2.33-17.35,4.69-34.83,10.16-51.28c4.29-12.91,10.41-24.95,14.7-37.86
			C-238.39,357.15-237.71,354.95-237.09,352.74z"/>
	</g>
	<g class="st4">
		<path class="st5" d="M-184.28,564.43c3.48-12.6,5.19-25.81,5-38.99c-0.06-4.03-0.31-8.23-2.24-11.67
			c-1.86-3.37-5.07-5.54-8.24-7.3c-10.66-5.92-22.66-8.84-34.59-8.4c-3.36,0.14-6.81,0.55-9.67,2.44
			c-4.94,3.24-7.09,9.88-8.17,16.11c-6.96,39.37,12,78.23,16.81,117.98c3.85,31.7-1.62,64.67-15.35,92.82
			c-6.15,12.6-13.92,24.33-18.21,37.82c-4.51,14.28-9.67,89.58,13.33,85.56c29.87-5.23,24.24-65.53,24.68-88.62
			c0.68-34.21,5.22-68.18,9.79-102.01c2.33-17.35,4.69-34.83,10.16-51.28c4.29-12.91,10.41-24.95,14.7-37.86
			C-185.55,568.87-184.9,566.67-184.28,564.43z"/>
	</g>
	<g class="st4">
		<path class="st5" d="M-237.09,421.95c3.48-12.6,5.19-25.81,5-38.99c-0.06-4.03-0.31-8.23-2.24-11.67
			c-1.86-3.37-5.07-5.54-8.24-7.3c-10.66-5.92-22.66-8.84-34.59-8.4c-3.36,0.14-6.81,0.55-9.67,2.44
			c-4.94,3.24-7.09,9.88-8.17,16.11c-6.96,39.37,12,78.23,16.81,117.98c3.85,31.7-1.62,64.67-15.35,92.82
			c-6.15,12.6-13.92,24.33-18.21,37.82c-4.51,14.28-9.67,89.58,13.33,85.56c29.87-5.23,24.24-65.53,24.68-88.62
			c0.68-34.21,5.22-68.18,9.79-102.01c2.33-17.35,4.69-34.83,10.16-51.28c4.29-12.91,10.41-24.95,14.7-37.86
			C-238.39,426.36-237.71,424.16-237.09,421.95z"/>
	</g>
</g>
<rect x="-0.23" y="311.58" class="st2" width="220" height="78.56"/>
</svg>
